<svg width="632" height="667" viewBox="0 0 632 667" fill="none" xmlns="http://www.w3.org/2000/svg">
<path d="M178.563 162.201H16.2478C9.62274 162.201 4.24585 156.824 4.24585 150.199V15.7769C4.24585 9.15179 9.62274 3.7749 16.2478 3.7749H178.563C185.188 3.7749 190.565 9.15179 190.565 15.7769V150.199C190.565 156.824 185.188 162.201 178.563 162.201Z" fill="white"/>
<path d="M178.157 166.107H15.8426C7.10517 166.107 0 159.002 0 150.265V15.8426C0 7.10517 7.10517 0 15.8426 0H178.157C186.895 0 194 7.10517 194 15.8426V150.265C194 159.002 186.895 166.107 178.157 166.107ZM15.8426 7.68127C11.3299 7.68127 7.68127 11.3299 7.68127 15.8426V150.265C7.68127 154.778 11.3299 158.426 15.8426 158.426H178.157C182.67 158.426 186.319 154.778 186.319 150.265V15.8426C186.319 11.3299 182.67 7.68127 178.157 7.68127H15.8426Z" fill="#3456D1"/>
<path d="M109.331 60.7269C108.893 59.1348 107.533 58.3603 105.165 58.3603C104.2 58.3603 103.367 58.5324 102.665 58.9197C101.963 59.3069 101.612 59.7802 101.612 60.3826C101.612 61.5444 102.446 62.2759 104.156 62.6201L106.831 63.1364C107.884 63.3516 108.805 63.5667 109.55 63.8249C110.296 64.083 110.998 64.3842 111.656 64.8145C112.313 65.2448 112.796 65.7611 113.147 66.4065C113.498 67.0519 113.629 67.8264 113.629 68.687C113.629 70.5802 112.84 72.0432 111.305 73.1189C109.726 74.1946 107.84 74.7539 105.56 74.7539C103.279 74.7539 101.393 74.1946 99.902 73.0328C98.4109 71.8711 97.5337 70.4081 97.3145 68.6009H101.437C101.832 70.6232 103.279 71.6129 105.735 71.6129C106.875 71.6129 107.796 71.3977 108.498 70.9675C109.2 70.5372 109.55 69.9348 109.55 69.2033C109.55 67.9125 108.454 67.0519 106.261 66.6217L103.411 66.0623C99.595 65.3308 97.6653 63.5237 97.6653 60.5978C97.6653 59.0057 98.4109 57.7149 99.9459 56.6822C101.437 55.6926 103.279 55.1763 105.428 55.1763C107.401 55.1763 109.112 55.6496 110.559 56.5962C112.006 57.5428 112.927 58.9197 113.322 60.6838H109.331V60.7269Z" fill="black"/>
<path d="M120.14 66.1914C120.269 67.8264 120.83 69.1173 121.821 70.0209C122.812 70.9244 123.933 71.3547 125.226 71.3547C127.553 71.3547 129.061 70.4942 129.837 68.73H133.888C133.414 70.4081 132.423 71.828 130.958 72.9898C129.492 74.1515 127.639 74.7539 125.398 74.7539C122.51 74.7539 120.183 73.8073 118.502 71.8711C116.779 69.9778 115.96 67.6113 115.96 64.8145C115.96 62.0177 116.822 59.6942 118.546 57.887C120.269 56.0799 122.467 55.1763 125.139 55.1763C127.984 55.1763 130.268 56.2089 131.906 58.2743C133.543 60.3396 134.319 62.9643 134.104 66.1484H120.14V66.1914ZM120.14 63.1794H129.88C129.837 61.7595 129.363 60.6408 128.415 59.7802C127.467 58.9197 126.389 58.4894 125.096 58.4894C123.933 58.4894 122.855 58.8767 121.864 59.6081C120.873 60.3396 120.269 61.5444 120.14 63.1794Z" fill="black"/>
<path d="M148.122 59.8335C147.43 59.748 146.781 59.748 146.132 59.748C144.747 59.748 143.709 60.0901 143.016 60.8171C142.324 61.5013 142.021 62.7415 142.021 64.5376V74.288H137.867V55.6426H141.935V58.9782C143.016 56.7972 144.704 55.6853 147.04 55.6426C147.343 55.6426 147.689 55.6853 148.122 55.7281V59.8335Z" fill="black"/>
<path d="M107.62 99.7275C109.45 101.446 110.364 103.957 110.364 107.172C110.364 110.388 109.45 112.855 107.62 114.573C105.79 116.291 103.612 117.172 101.042 117.172C98.515 117.172 96.3368 116.291 94.4635 114.573C92.6338 112.855 91.719 110.388 91.719 107.172C91.719 103.957 92.6338 101.49 94.4635 99.7275C96.2932 98.0095 98.4714 97.1284 101.042 97.1284C103.568 97.1284 105.747 97.9654 107.62 99.7275ZM97.4694 111.974C98.4278 113.119 99.6041 113.692 101.042 113.692C102.436 113.692 103.612 113.119 104.614 111.974C105.572 110.829 106.052 109.243 106.052 107.128C106.052 105.014 105.572 103.384 104.614 102.238C103.656 101.093 102.479 100.52 101.042 100.52C99.6476 100.52 98.4278 101.093 97.4694 102.238C96.511 103.384 96.0318 105.014 96.0318 107.128C96.0318 109.243 96.511 110.829 97.4694 111.974Z" fill="black"/>
<path d="M125.322 113.707C124.208 115.721 122.367 116.706 119.839 116.706C115.684 116.706 113.628 114.264 113.628 109.379V97.6376H117.74V108.35C117.74 109.079 117.783 109.722 117.826 110.236C117.912 110.75 118.04 111.264 118.254 111.778C118.469 112.293 118.811 112.678 119.325 112.935C119.797 113.192 120.439 113.321 121.167 113.321C123.951 113.321 125.365 111.393 125.365 107.536V97.5947H129.477V116.235H125.365V113.707H125.322Z" fill="black"/>
<path d="M144.86 101.752C144.137 101.667 143.458 101.667 142.78 101.667C141.332 101.667 140.246 102.01 139.523 102.738C138.799 103.424 138.482 104.667 138.482 106.467V116.24H134.139V97.5947H138.392V100.938C139.523 98.752 141.287 97.6376 143.73 97.5947C144.046 97.5947 144.408 97.6376 144.86 97.6805V101.752Z" fill="black"/>
<path d="M90.004 48.5844V63.6264C90.004 66.1334 89.5614 68.0246 88.6762 69.2561C87.7911 70.4876 86.2421 71.1034 83.9406 71.1034C81.6392 71.1034 80.046 70.5316 79.1608 69.3441C78.2756 68.1566 77.8773 66.3093 77.8773 63.8023V48.5844L77.8331 30.4637L85.5339 38.1166V32.4869L75.5759 22.5469L65.6179 32.4429V38.0726L73.3188 30.4197V54.7859V63.5824C73.3188 67.6728 74.1597 70.5756 75.7972 72.2469C77.4347 73.9183 80.1787 74.7539 83.9406 74.7539C87.7468 74.7539 90.4465 73.8743 92.0841 72.115C93.7216 70.3557 94.5183 67.4529 94.5183 63.4065V48.5405H90.004V48.5844Z" fill="black"/>
<path d="M85.9666 116.378V94.6028H94.0511V90.8574H73.4757L53.1041 90.901L59.4843 84.5425H54.8084L46.5054 92.7737L54.7647 101.005H59.4843L53.1041 94.6464L73.4683 94.6028H81.5092V116.378V136.368L73.9053 128.791V134.365L83.7379 144.208L93.5704 134.409V128.834L85.9666 136.368V116.378Z" fill="black"/>
<path d="M316.023 162.162C359.73 162.162 395.162 126.731 395.162 83.0233C395.162 39.316 359.73 3.88428 316.023 3.88428C272.315 3.88428 236.884 39.316 236.884 83.0233C236.884 126.731 272.315 162.162 316.023 162.162Z" fill="white"/>
<path d="M316.023 166C270.239 166 233 128.761 233 83.0229C233 37.2392 270.239 0 316.023 0C361.807 0 399.046 37.2392 399.046 83.0229C399 128.761 361.761 166 316.023 166ZM316.023 7.76769C274.534 7.76769 240.768 41.5343 240.768 83.0229C240.768 124.511 274.534 158.278 316.023 158.278C357.511 158.278 391.278 124.511 391.278 83.0229C391.232 41.5343 357.511 7.76769 316.023 7.76769Z" fill="#3456D1"/>
<path d="M296.065 24.2539L285.462 34.9182V40.973L293.657 32.7306L293.735 58.9812V64.2547C293.735 66.8719 293.269 68.8251 292.375 70.0751C291.482 71.3642 289.851 71.9892 287.52 71.9892C285.151 71.9892 283.519 71.3642 282.626 70.1532C281.733 68.9423 281.305 66.9891 281.305 64.4109V48.6294H276.645V64.2547C276.645 68.5126 277.499 71.5205 279.169 73.2783C280.839 75.0362 283.636 75.8956 287.52 75.8956C291.404 75.8956 294.201 74.9971 295.871 73.1611C297.541 71.3251 298.396 68.3173 298.396 64.1375V59.0593L298.434 32.6916L306.63 41.0511V34.9572L296.065 24.2539Z" fill="black"/>
<path d="M314.61 60.9938C314.178 59.3075 312.687 58.484 310.253 58.484C309.232 58.484 308.369 58.6801 307.623 59.1114C306.877 59.5036 306.524 60.0526 306.524 60.68C306.524 61.9349 307.427 62.7192 309.193 63.0329L312.019 63.582C313.119 63.8172 314.061 64.0525 314.846 64.2878C315.631 64.5623 316.377 64.9153 317.044 65.3466C317.75 65.778 318.261 66.3662 318.614 67.0329C318.967 67.7388 319.124 68.5231 319.124 69.4642C319.124 71.4642 318.3 73.0328 316.691 74.17C315.042 75.3073 313.04 75.8955 310.685 75.8955C308.29 75.8955 306.328 75.2681 304.758 74.0524C303.188 72.8367 302.285 71.2681 302.049 69.3466H306.367C306.799 71.5034 308.29 72.5622 310.842 72.5622C312.019 72.5622 313.001 72.3269 313.747 71.8564C314.492 71.3858 314.846 70.7583 314.846 69.974C314.846 68.6015 313.707 67.6603 311.391 67.229L308.369 66.6407C304.365 65.8564 302.363 63.8957 302.363 60.8369C302.363 59.1506 303.148 57.7389 304.718 56.6801C306.289 55.6213 308.212 55.0723 310.449 55.0723C312.49 55.0723 314.296 55.5821 315.827 56.6017C317.358 57.6212 318.339 59.0722 318.732 60.9545H314.61V60.9938Z" fill="black"/>
<path d="M326.046 66.7364C326.201 68.4978 326.783 69.8286 327.831 70.8071C328.878 71.7857 330.042 72.2554 331.4 72.2554C333.845 72.2554 335.474 71.316 336.25 69.4763H340.518C340.014 71.2377 338.966 72.7642 337.453 74.0167C335.901 75.2692 333.961 75.8955 331.594 75.8955C328.529 75.8955 326.124 74.8778 324.3 72.8425C322.515 70.8071 321.623 68.3021 321.623 65.3273C321.623 62.3526 322.515 59.8867 324.339 57.9687C326.162 56.0508 328.49 55.0723 331.284 55.0723C334.272 55.0723 336.677 56.1682 338.423 58.3601C340.169 60.5521 340.945 63.3311 340.751 66.7364H326.046ZM326.046 63.4877H336.328C336.289 62.0003 335.746 60.7869 334.776 59.8475C333.806 58.9473 332.642 58.4776 331.284 58.4776C330.042 58.4776 328.917 58.869 327.87 59.691C326.822 60.5129 326.201 61.7655 326.046 63.4877Z" fill="black"/>
<path d="M355.318 60.0052C354.578 59.9267 353.877 59.8874 353.215 59.8874C351.734 59.8874 350.644 60.2802 349.943 61.0264C349.242 61.7726 348.891 63.1079 348.891 65.0323V75.4791H344.529V55.528H348.852V59.1019C349.982 56.7455 351.773 55.5673 354.227 55.4888C354.539 55.4888 354.928 55.528 355.357 55.5673V60.0052H355.318Z" fill="black"/>
<path d="M284.971 96.8618H276.645V92.9707H297.884V96.8618H289.597V119.624H284.971V96.8618Z" fill="black"/>
<path d="M312.834 101.924C314.793 103.728 315.792 106.316 315.792 109.649C315.792 113.022 314.793 115.57 312.834 117.374C310.874 119.178 308.516 120.041 305.797 120.041C303.078 120.041 300.719 119.139 298.76 117.374C296.801 115.57 295.802 113.022 295.802 109.649C295.802 106.276 296.801 103.728 298.76 101.924C300.719 100.12 303.078 99.2178 305.797 99.2178C308.516 99.2178 310.834 100.12 312.834 101.924ZM301.959 114.708C302.998 115.884 304.278 116.472 305.757 116.472C307.276 116.472 308.556 115.884 309.555 114.708C310.595 113.531 311.114 111.845 311.114 109.649C311.114 107.453 310.595 105.767 309.555 104.59C308.516 103.414 307.236 102.826 305.757 102.826C304.238 102.826 302.958 103.414 301.959 104.59C300.919 105.767 300.4 107.453 300.4 109.649C300.44 111.845 300.919 113.531 301.959 114.708Z" fill="black"/>
<path d="M331.477 99.7582V110.349C331.477 114.453 330.002 116.524 327.053 116.524C326.277 116.524 325.618 116.367 325.113 116.094C324.609 115.82 324.221 115.39 323.988 114.843C323.755 114.296 323.6 113.749 323.522 113.202C323.445 112.655 323.406 111.99 323.406 111.209V99.7582L323.484 87.0961L331.981 95.5766V89.5191L321.388 78.811L310.796 89.48V95.5375L318.983 87.2915L319.021 99.7192V112.225C319.021 117.462 321.233 120.041 325.618 120.041C328.334 120.041 330.274 118.986 331.438 116.836V119.572H335.784V99.7192H331.477V99.7582Z" fill="black"/>
<path d="M351.569 104.151C350.829 104.072 350.128 104.033 349.466 104.033C347.986 104.033 346.895 104.426 346.194 105.172C345.493 105.918 345.143 107.253 345.143 109.178V119.625H340.78V99.6736H345.104V103.247C346.233 100.891 348.025 99.7128 350.479 99.6343C350.79 99.6343 351.18 99.6736 351.608 99.7128V104.151H351.569Z" fill="black"/>
<path d="M521.918 9.17503L443.103 145.681C438.806 153.11 444.177 162.42 452.77 162.42H610.401C618.994 162.42 624.364 153.11 620.068 145.681L541.253 9.17503C536.956 1.70077 526.215 1.70077 521.918 9.17503Z" fill="white"/>
<path d="M610.4 166H452.769C447.444 166 442.655 163.225 440.014 158.615C437.329 154.005 437.329 148.5 440.014 143.891L518.829 7.38474L521.918 9.17498L518.829 7.38474C521.47 2.77487 526.259 0 531.585 0C536.911 0 541.7 2.77487 544.34 7.38474L623.156 143.891C625.841 148.5 625.841 154.005 623.156 158.615C620.47 163.225 615.726 166 610.4 166ZM531.585 7.16096C528.855 7.16096 526.393 8.59315 525.006 10.9652L446.19 147.471C444.803 149.843 444.803 152.663 446.19 155.035C447.578 157.407 449.995 158.839 452.769 158.839H610.4C613.13 158.839 615.592 157.407 616.979 155.035C618.367 152.663 618.367 149.843 616.979 147.471L538.164 10.9652C536.776 8.59315 534.315 7.16096 531.585 7.16096Z" fill="#3456D1"/>
<path d="M502.81 104.344C506.817 104.344 509.701 103.415 511.411 101.558C513.121 99.7013 514.001 96.5738 514.001 92.2736V79.4706V63.3935C514.001 60.7059 514.489 58.7024 515.418 57.383C516.346 56.0636 518.008 55.4283 520.402 55.4283L536.968 55.4772L529.394 63.1003H534.818L544.347 53.5714L534.818 44.0913H529.394L536.724 51.4701H520.305C516.298 51.4701 513.414 52.3986 511.704 54.2555C509.994 56.1124 509.114 59.2399 509.114 63.5401V76.3431V92.4202C509.114 95.1078 508.625 97.1114 507.697 98.4307C506.769 99.7501 505.107 100.385 502.713 100.385C500.269 100.385 498.559 99.7501 497.631 98.4796C496.702 97.2091 496.262 95.2544 496.262 92.5668V76.3431H491.473V92.3713C491.473 96.7204 492.353 99.799 494.063 101.607C495.92 103.464 498.803 104.344 502.81 104.344Z" fill="black"/>
<path d="M529.54 100.239C528.758 100.727 527.781 100.972 526.608 100.972C523.97 100.972 522.455 99.8965 522.015 97.6975H517.617C517.861 99.6522 518.79 101.265 520.402 102.535C522.015 103.806 524.018 104.392 526.462 104.392C528.905 104.392 530.909 103.806 532.619 102.633C534.28 101.46 535.111 99.8476 535.111 97.7952C535.111 96.8179 534.916 95.9872 534.574 95.3031C534.232 94.6189 533.694 94.0325 532.961 93.5439C532.277 93.1041 531.495 92.7131 530.713 92.4688C529.931 92.2245 528.954 91.9802 527.83 91.7358L524.947 91.1494C523.139 90.8074 522.21 89.9766 522.21 88.7061C522.21 88.0708 522.601 87.5333 523.334 87.0935C524.067 86.6537 524.947 86.4582 526.022 86.4582C528.563 86.4582 530.029 87.3378 530.469 89.0482H534.72C534.329 87.0935 533.352 85.6275 531.788 84.6013C530.224 83.5751 528.368 83.0376 526.315 83.0376C524.018 83.0376 522.064 83.5751 520.451 84.6991C518.839 85.7741 518.008 87.2401 518.008 88.9504C518.008 92.1268 520.06 94.0814 524.165 94.9121L527.244 95.4985C529.589 95.9383 530.762 96.8668 530.762 98.2839C530.713 99.1146 530.322 99.7499 529.54 100.239Z" fill="black"/>
<path d="M547.573 83.0376C544.69 83.0376 542.295 84.0149 540.389 85.9696C538.484 87.9242 537.555 90.4653 537.555 93.495C537.555 96.5736 538.484 99.1146 540.341 101.216C542.197 103.317 544.69 104.343 547.866 104.343C550.309 104.343 552.313 103.708 553.925 102.389C555.538 101.118 556.564 99.5544 557.102 97.7464H552.655C551.824 99.6522 550.163 100.581 547.671 100.581C546.302 100.581 545.032 100.092 543.957 99.1146C542.882 98.1373 542.246 96.7202 542.1 94.961H557.297C557.493 91.4915 556.711 88.6572 554.903 86.4094C553.144 84.1615 550.7 83.0376 547.573 83.0376ZM542.149 91.6381C542.344 89.8789 542.979 88.5595 544.054 87.7776C545.129 86.9469 546.302 86.556 547.573 86.556C548.941 86.556 550.163 87.0446 551.189 87.9731C552.215 88.9016 552.753 90.1232 552.801 91.6869H542.149V91.6381Z" fill="black"/>
<path d="M571.027 83.4292C568.486 83.4781 566.678 84.6997 565.505 87.0942V83.4781H561.058V103.855H565.554V93.1536C565.554 91.199 565.896 89.8307 566.629 89.0977C567.362 88.3158 568.486 87.9249 570.001 87.9249C570.685 87.9249 571.418 87.9738 572.151 88.0226V83.4781C571.76 83.4781 571.369 83.4292 571.027 83.4292Z" fill="black"/>
<path d="M514.441 121.837H492.304V125.893H500.953V149.3H505.791V125.893H514.441V121.837Z" fill="black"/>
<path d="M522.212 128.483C519.475 128.483 517.13 129.412 515.126 131.269C513.123 133.126 512.145 135.764 512.145 139.185C512.145 142.606 513.123 145.245 515.126 147.101C517.13 148.91 519.475 149.838 522.212 149.838C524.948 149.838 527.294 148.91 529.297 147.101C531.301 145.293 532.278 142.655 532.278 139.185C532.278 135.764 531.301 133.126 529.297 131.269C527.294 129.412 524.948 128.483 522.212 128.483ZM526.072 144.316C525.046 145.538 523.776 146.124 522.261 146.124C520.746 146.124 519.475 145.538 518.449 144.316C517.423 143.094 516.885 141.384 516.885 139.185C516.885 136.937 517.423 135.227 518.449 134.005C519.475 132.784 520.746 132.197 522.261 132.197C523.776 132.197 525.046 132.784 526.072 134.005C527.099 135.227 527.636 136.937 527.636 139.185C527.587 141.384 527.099 143.094 526.072 144.316Z" fill="black"/>
<path d="M548.549 139.821C548.549 144.023 547.034 146.124 543.955 146.124C543.124 146.124 542.489 145.978 541.952 145.685C541.414 145.391 541.023 144.952 540.779 144.414C540.534 143.877 540.388 143.29 540.29 142.704C540.192 142.166 540.192 141.482 540.192 140.651V128.923L540.29 116.023L549.037 124.672V118.466L538.14 107.569L527.292 118.466V124.672L535.697 116.267V128.972V141.824C535.697 147.199 537.993 149.838 542.538 149.838C545.323 149.838 547.327 148.763 548.549 146.564V149.35H553.044V128.972H548.549V139.821Z" fill="black"/>
<path d="M562.574 132.588V128.972H558.128V149.35H562.623V138.648C562.623 136.693 562.965 135.325 563.698 134.592C564.431 133.81 565.555 133.419 567.07 133.419C567.754 133.419 568.487 133.468 569.22 133.517V128.972C568.78 128.923 568.39 128.875 568.047 128.875C565.555 128.972 563.747 130.194 562.574 132.588Z" fill="black"/>
<path d="M566.923 244.477H495.077C491.423 244.477 487.928 245.938 485.354 248.512L434.512 299.322C431.939 301.896 430.477 305.391 430.477 309.045V380.923C430.477 384.577 431.939 388.072 434.512 390.646L485.322 441.456C487.896 444.03 491.391 445.491 495.046 445.491H566.923C570.577 445.491 574.073 444.03 576.646 441.456L627.456 390.646C630.03 388.072 631.492 384.577 631.492 380.923V309.077C631.492 305.423 630.03 301.928 627.456 299.354L576.678 248.512C574.073 245.938 570.577 244.477 566.923 244.477Z" fill="white"/>
<path d="M566.923 446H495.077C491.264 446 487.705 444.507 485.004 441.837L434.163 390.996C431.493 388.327 430 384.736 430 380.923V309.077C430 305.264 431.493 301.705 434.163 299.004L485.004 248.163C487.673 245.493 491.264 244 495.077 244H566.955C570.768 244 574.327 245.493 577.028 248.163L627.837 298.972C630.538 301.673 632 305.232 632 309.045V380.923C632 384.736 630.507 388.295 627.837 390.996L576.996 441.837C574.327 444.507 570.736 446 566.923 446ZM495.077 244.953C491.518 244.953 488.182 246.351 485.672 248.862L434.862 299.672C432.351 302.182 430.953 305.518 430.953 309.077V380.955C430.953 384.513 432.351 387.85 434.862 390.36L485.672 441.17C488.182 443.68 491.518 445.078 495.077 445.078H566.955C570.513 445.078 573.85 443.68 576.36 441.17L627.17 390.36C629.68 387.85 631.078 384.513 631.078 380.955V309.077C631.078 305.518 629.68 302.182 627.17 299.672L576.328 248.862C573.818 246.351 570.482 244.953 566.923 244.953H495.077Z" fill="black"/>
<path d="M562.57 268.445H499.145L454.309 313.313V376.737L499.145 421.573H562.57L607.406 376.737V313.313L562.57 268.445Z" fill="#D13333"/>
<path d="M562.76 422.05H498.954L453.832 376.928V313.122L498.954 268H562.76L607.882 313.122V376.928L562.76 422.05ZM499.367 421.097H562.379L606.929 376.547V313.503L562.379 268.922H499.367L454.785 313.503V376.515L499.367 421.097Z" fill="black"/>
<path d="M471.888 337.6H478.44C482.616 337.6 484.704 339.08 484.704 342.04C484.704 342.824 484.512 343.56 484.128 344.248C483.76 344.936 483.304 345.44 482.76 345.76C484.504 346.544 485.376 347.904 485.376 349.84C485.376 351.6 484.776 352.904 483.576 353.752C482.376 354.584 480.808 355 478.872 355H471.888V337.6ZM474.936 344.872H478.728C480.648 344.872 481.608 344.04 481.608 342.376C481.608 341.624 481.344 341.048 480.816 340.648C480.304 340.248 479.608 340.048 478.728 340.048H474.936V344.872ZM474.936 352.552H478.992C481.152 352.552 482.232 351.648 482.232 349.84C482.232 348.08 481.096 347.2 478.824 347.2H474.936V352.552ZM496.785 355V349.504H491.025V355H488.169V342.088H491.025V347.248H496.785V342.088H499.641V355H496.785ZM514.955 355H512.099V346.048L505.955 355H503.099V342.088H505.955V351.088L512.099 342.088H514.955V355ZM533.481 355H530.721V344.776L526.929 355H524.721L520.929 344.824V355H518.169V342.088H522.489L525.873 351.304L529.161 342.088H533.481V355ZM536.289 351.448C536.289 350.824 536.441 350.272 536.745 349.792C537.065 349.312 537.473 348.92 537.969 348.616C538.465 348.296 539.105 348.024 539.889 347.8C540.689 347.576 541.473 347.408 542.241 347.296C543.009 347.168 543.921 347.048 544.977 346.936V346.696C544.977 345.672 544.729 344.936 544.233 344.488C543.737 344.04 543.089 343.816 542.289 343.816C541.537 343.816 540.921 344.016 540.441 344.416C539.977 344.816 539.729 345.392 539.697 346.144H536.889C536.985 344.816 537.537 343.744 538.545 342.928C539.553 342.112 540.833 341.704 542.385 341.704C544.065 341.704 545.401 342.144 546.393 343.024C547.385 343.888 547.865 345.296 547.833 347.248C547.833 347.424 547.825 347.92 547.809 348.736C547.793 349.536 547.785 350.152 547.785 350.584C547.785 352.376 547.913 353.848 548.169 355H545.553C545.409 354.184 545.329 353.6 545.313 353.248C544.513 354.624 543.097 355.312 541.065 355.312C539.657 355.312 538.505 354.96 537.609 354.256C536.729 353.552 536.289 352.616 536.289 351.448ZM545.049 348.928C542.953 349.12 541.473 349.4 540.609 349.768C539.745 350.12 539.313 350.656 539.313 351.376C539.313 351.936 539.529 352.376 539.961 352.696C540.393 353.016 540.969 353.176 541.689 353.176C542.761 353.176 543.585 352.904 544.161 352.36C544.753 351.8 545.049 350.984 545.049 349.912V348.928ZM559.457 355V349.504H553.697V355H550.841V342.088H553.697V347.248H559.457V342.088H562.313V355H559.457ZM577.627 355H574.771V346.048L568.627 355H565.771V342.088H568.627V351.088L574.771 342.088H577.627V355ZM582.761 349.36C582.857 350.496 583.241 351.376 583.913 352C584.601 352.624 585.385 352.936 586.265 352.936C587.865 352.936 588.921 352.336 589.433 351.136H592.241C591.905 352.288 591.233 353.272 590.225 354.088C589.217 354.904 587.937 355.312 586.385 355.312C584.385 355.312 582.793 354.656 581.609 353.344C580.441 352.016 579.857 350.384 579.857 348.448C579.857 346.512 580.449 344.92 581.633 343.672C582.833 342.424 584.353 341.8 586.193 341.8C588.161 341.8 589.713 342.512 590.849 343.936C592.001 345.36 592.513 347.168 592.385 349.36H582.761ZM582.761 347.272H589.481C589.449 346.296 589.113 345.512 588.473 344.92C587.833 344.328 587.073 344.032 586.193 344.032C585.393 344.032 584.649 344.296 583.961 344.824C583.273 345.336 582.873 346.152 582.761 347.272Z" fill="white"/>
<path d="M304.876 432.943L224.027 352.125C217.9 345.997 217.9 336.032 224.027 329.905L304.876 249.057C311.003 242.929 320.968 242.929 327.096 249.057L407.944 329.905C414.071 336.032 414.071 345.997 407.944 352.125L327.096 432.943C320.968 439.1 311.003 439.1 304.876 432.943Z" fill="white"/>
<path d="M316 438C311.687 438 307.612 436.305 304.578 433.27L223.73 352.422C217.423 346.116 217.423 335.854 223.73 329.578L304.578 248.73C307.612 245.695 311.687 244 316 244C320.313 244 324.388 245.695 327.422 248.73L408.27 329.578C414.577 335.884 414.577 346.146 408.27 352.422L327.422 433.27C324.358 436.305 320.313 438 316 438ZM316 244.892C311.925 244.892 308.088 246.469 305.202 249.354L224.354 330.202C218.405 336.151 218.405 345.849 224.354 351.798L305.202 432.646C308.088 435.531 311.925 437.108 316 437.108C320.075 437.108 323.912 435.531 326.798 432.646L407.646 351.798C413.595 345.849 413.595 336.151 407.646 330.202L326.798 249.354C323.912 246.469 320.075 244.892 316 244.892Z" fill="black"/>
<path d="M388.53 340.595L315.587 267.652L242.645 340.595L315.587 413.537L388.53 340.595Z" fill="#FFEB3C"/>
<path d="M315.59 414.181L242 340.59L242.327 340.263L315.59 267L389.181 340.59L315.59 414.181ZM243.279 340.59L315.59 412.902L387.902 340.59L315.59 268.279L243.279 340.59Z" fill="black"/>
<path d="M297.709 347.84C296.205 349.488 294.189 350.312 291.661 350.312C289.133 350.312 287.117 349.488 285.613 347.84C284.109 346.176 283.357 343.992 283.357 341.288C283.357 338.584 284.109 336.408 285.613 334.76C287.117 333.112 289.133 332.288 291.661 332.288C294.189 332.288 296.205 333.112 297.709 334.76C299.213 336.408 299.965 338.584 299.965 341.288C299.965 343.992 299.213 346.176 297.709 347.84ZM287.941 346.088C288.917 347.24 290.157 347.816 291.661 347.816C293.165 347.816 294.397 347.24 295.357 346.088C296.333 344.936 296.821 343.336 296.821 341.288C296.821 339.24 296.333 337.648 295.357 336.512C294.397 335.36 293.165 334.784 291.661 334.784C290.157 334.784 288.917 335.36 287.941 336.512C286.981 337.648 286.501 339.24 286.501 341.288C286.501 343.336 286.981 344.936 287.941 346.088ZM316.926 350V344.504H311.166V350H308.31V337.088H311.166V342.248H316.926V337.088H319.782V350H316.926ZM322.352 346.448C322.352 345.824 322.504 345.272 322.808 344.792C323.128 344.312 323.536 343.92 324.032 343.616C324.528 343.296 325.168 343.024 325.952 342.8C326.752 342.576 327.536 342.408 328.304 342.296C329.072 342.168 329.984 342.048 331.04 341.936V341.696C331.04 340.672 330.792 339.936 330.296 339.488C329.8 339.04 329.152 338.816 328.352 338.816C327.6 338.816 326.984 339.016 326.504 339.416C326.04 339.816 325.792 340.392 325.76 341.144H322.952C323.048 339.816 323.6 338.744 324.608 337.928C325.616 337.112 326.896 336.704 328.448 336.704C330.128 336.704 331.464 337.144 332.456 338.024C333.448 338.888 333.928 340.296 333.896 342.248C333.896 342.424 333.888 342.92 333.872 343.736C333.856 344.536 333.848 345.152 333.848 345.584C333.848 347.376 333.976 348.848 334.232 350H331.616C331.472 349.184 331.392 348.6 331.376 348.248C330.576 349.624 329.16 350.312 327.128 350.312C325.72 350.312 324.568 349.96 323.672 349.256C322.792 348.552 322.352 347.616 322.352 346.448ZM331.112 343.928C329.016 344.12 327.536 344.4 326.672 344.768C325.808 345.12 325.376 345.656 325.376 346.376C325.376 346.936 325.592 347.376 326.024 347.696C326.456 348.016 327.032 348.176 327.752 348.176C328.824 348.176 329.648 347.904 330.224 347.36C330.816 346.8 331.112 345.984 331.112 344.912V343.928ZM348.016 341.504H345.232C345.104 340.816 344.76 340.256 344.2 339.824C343.656 339.392 343 339.176 342.232 339.176C341.272 339.176 340.464 339.544 339.808 340.28C339.168 341.016 338.848 342.104 338.848 343.544C338.848 344.984 339.168 346.08 339.808 346.832C340.448 347.568 341.232 347.936 342.16 347.936C342.928 347.936 343.6 347.744 344.176 347.36C344.768 346.976 345.152 346.384 345.328 345.584H348.112C347.84 347.04 347.128 348.192 345.976 349.04C344.84 349.888 343.552 350.312 342.112 350.312C340.256 350.312 338.752 349.68 337.6 348.416C336.464 347.136 335.896 345.52 335.896 343.568C335.896 341.616 336.48 340 337.648 338.72C338.816 337.44 340.344 336.8 342.232 336.8C343.672 336.8 344.936 337.232 346.024 338.096C347.112 338.96 347.776 340.096 348.016 341.504Z" fill="black"/>
<path d="M189.62 309.037C189.087 302.241 187.979 295.542 186.311 288.929C186.156 288.31 185.96 288.07 185.273 288.084C182.469 288.141 179.678 288.113 176.874 288.113C168.419 288.113 159.964 288.113 151.509 288.113V288H34.8218V288.113C26.1986 288.113 17.5753 288.099 8.96611 288.099C8.11079 288.099 7.7883 288.352 7.60602 289.154C6.20386 295.022 5.13823 300.932 4.56334 306.94C3.41358 319.056 4.00248 331.073 6.52636 342.978C10.7889 363.115 19.6365 380.986 33.1673 396.45C49.7548 415.391 70.3384 427.802 94.792 433.684C95.8156 433.937 96.9513 434.106 97.9749 433.923C100.134 433.543 102.28 432.952 104.397 432.347C120.732 427.689 135.384 419.865 148.326 408.833C163.399 395.972 174.589 380.282 181.866 361.82C185.553 352.462 187.965 342.767 189.157 332.776C190.096 324.882 190.251 316.974 189.62 309.037Z" fill="#33AA55"/>
<path d="M184.846 283.483C180.995 271.194 175.282 259.829 167.777 249.358C167.217 248.575 166.754 248.379 165.816 248.645C159.403 250.448 152.878 251.637 146.255 252.308C136.817 253.258 128.275 253.286 118.263 252.14C111.43 251.357 104.722 249.987 98.0992 248.142C97.4271 247.96 96.6149 247.946 95.9428 248.142C84.5866 251.371 72.9924 252.979 61.1881 252.993C49.9439 252.993 38.8818 251.567 28.0437 248.589C27.3435 248.393 26.9095 248.435 26.4334 249.106C19.7121 258.389 14.4471 268.44 10.5823 279.219C10.0222 280.771 9.5321 282.35 9 283.972C67.7413 283.986 126.315 283.986 185 284C184.916 283.72 184.888 283.595 184.846 283.483Z" fill="#45E472"/>
<path d="M118.82 248.796L118.82 248.796C118.336 248.753 117.847 248.716 117.354 248.679C116.269 248.598 115.169 248.515 114.083 248.36L114.08 248.36C108.532 247.517 103.069 246.295 97.6898 244.708M118.82 248.796L97.7741 244.42M118.82 248.796L118.832 248.797C119.12 248.811 119.411 248.825 119.701 248.839L119.701 248.839C119.987 248.853 120.273 248.866 120.556 248.88L118.82 248.796ZM97.6898 244.708C97.6896 244.708 97.6894 244.708 97.6892 244.708L97.7741 244.42M97.6898 244.708C97.69 244.708 97.6902 244.708 97.6904 244.708L97.7741 244.42M97.6898 244.708C97.3117 244.598 96.8238 244.597 96.4283 244.708M97.7741 244.42C97.3397 244.294 96.7933 244.294 96.3449 244.42M96.4283 244.708C96.429 244.708 96.4297 244.708 96.4305 244.708L96.3449 244.42M96.4283 244.708C96.4276 244.708 96.4269 244.709 96.4261 244.709L96.3449 244.42M96.4283 244.708C83.9137 248.43 71.1044 250.059 58.0577 249.694C47.5513 249.399 37.2414 247.755 27.1429 244.792L27.1324 244.789L27.1325 244.789C26.8915 244.708 26.6506 244.638 26.3213 244.542C25.9643 245.023 25.6046 245.503 25.2443 245.984C24.2672 247.288 23.2859 248.597 22.3452 249.944L22.3451 249.944C13.0643 263.222 6.69129 277.771 3.25299 293.593C1.99543 299.392 1.21255 305.248 0.779069 311.163C0.756191 311.483 0.680044 311.811 0.610497 312.11C0.596374 312.171 0.582523 312.23 0.569446 312.289C0.108192 327.407 1.70297 342.249 6.48121 356.668L6.48134 356.668C11.3036 371.289 18.5993 384.524 28.425 396.377C33.3868 402.359 38.8794 407.824 44.9029 412.729L44.903 412.729C60.1383 425.155 77.3701 433.428 96.616 437.468C96.9263 437.529 97.2769 437.529 97.5872 437.468C121.279 432.436 141.682 421.339 158.72 404.147C174.332 388.395 184.786 369.71 190.153 348.185C193.172 336.068 194.248 323.741 193.396 311.288C191.705 286.702 183.292 264.649 168.279 245.107C168.081 244.852 167.925 244.741 167.778 244.697C167.629 244.651 167.437 244.658 167.131 244.75L167.131 244.75C157.75 247.53 148.169 249.23 138.375 249.554C134.116 249.701 129.845 249.606 125.595 249.512C125.375 249.507 125.155 249.503 124.936 249.498C124.936 249.498 124.935 249.498 124.935 249.498L124.942 249.198C123.96 249.179 122.984 249.001 122.006 248.823C121.533 248.736 121.06 248.65 120.584 248.581L96.3449 244.42M189.931 309.325C189.397 302.54 188.288 295.855 186.616 289.253C186.538 288.939 186.433 288.644 186.204 288.444C185.966 288.235 185.653 288.178 185.282 288.185C183.185 288.227 181.097 288.222 179 288.217C178.3 288.215 177.598 288.213 176.896 288.213C150.316 288.227 123.695 288.227 97.0735 288.227H97.0134H96.9533H96.8932H96.8331H96.773H96.7129H96.6528H96.5927H96.5326H96.4725H96.4124H96.3523H96.2922H96.2321H96.172H96.1119H96.0518H95.9917H95.9316H95.8715H95.8114H95.7513H95.6912H95.6311H95.571H95.5109H95.4508H95.3907H95.3306H95.2705H95.2104H95.1503H95.0902H95.0301H94.97H94.9099H94.8498H94.7897H94.7296H94.6695H94.6094H94.5492H94.4891H94.429H94.3689H94.3088H94.2487H94.1886H94.1285H94.0684H94.0083H93.9482H93.888H93.8279H93.7678H93.7077H93.6476H93.5875H93.5274H93.4673H93.4072H93.347H93.2869H93.2268H93.1667H93.1066H93.0465H92.9864H92.9262H92.8661H92.806H92.7459H92.6858H92.6257H92.5656H92.5054H92.4453H92.3852H92.3251H92.265H92.2049H92.1447H92.0846H92.0245H91.9644H91.9043H91.8442H91.784H91.7239H91.6638H91.6037H91.5436H91.4834H91.4233H91.3632H91.3031H91.243H91.1828H91.1227H91.0626H91.0025H90.9424H90.8822H90.8221H90.762H90.7019H90.6417H90.5816H90.5215H90.4614H90.4013H90.3411H90.281H90.2209H90.1608H90.1006H90.0405H89.9804H89.9203H89.8601H89.8H89.7399H89.6798H89.6196H89.5595H89.4994H89.4393H89.3791H89.319H89.2589H89.1988H89.1386H89.0785H89.0184H88.9583H88.8981H88.838H88.7779H88.7177H88.6576H88.5975H88.5374H88.4772H88.4171H88.357H88.2968H88.2367H88.1766H88.1165H88.0563H87.9962H87.9361H87.8759H87.8158H87.7557H87.6956H87.6354H87.5753H87.5152H87.455H87.3949H87.3348H87.2746H87.2145H87.1544H87.0942H87.0341H86.974H86.9139H86.8537H86.7936H86.7335H86.6733H86.6132H86.5531H86.4929H86.4328H86.3727H86.3125H86.2524H86.1923H86.1321H86.072H86.0119H85.9517H85.8916H85.8315H85.7713H85.7112H85.6511H85.5909H85.5308H85.4707H85.4105H85.3504H85.2903H85.2301H85.17H85.1099H85.0497H84.9896H84.9295H84.8693H84.8092H84.7491H84.6889H84.6288H84.5687H84.5085H84.4484H84.3883H84.3281H84.268H84.2078H84.1477H84.0876H84.0274H83.9673H83.9072H83.847H83.7869H83.7268H83.6666H83.6065H83.5464H83.4862H83.4261H83.366H83.3058H83.2457H83.1855H83.1254H83.0653H83.0051H82.945H82.8849H82.8247H82.7646H82.7045H82.6443H82.5842H82.524H82.4639H82.4038H82.3436H82.2835H82.2234H82.1632H82.1031H82.043H81.9828H81.9227H81.8625H81.8024H81.7423H81.6821H81.622H81.5619H81.5017H81.4416H81.3815H81.3213H81.2612H81.201H81.1409H81.0808H81.0206H80.9605H80.9004H80.8402H80.7801H80.72H80.6598H80.5997H80.5396H80.4794H80.4193H80.3591H80.299H80.2389H80.1787H80.1186H80.0585H79.9983H79.9382H79.8781H79.8179H79.7578H79.6977H79.6375H79.5774H79.5172H79.4571H79.397H79.3368H79.2767H79.2166H79.1564H79.0963H79.0362H78.976H78.9159H78.8558H78.7956H78.7355H78.6754H78.6152H78.5551H78.4949H78.4348H78.3747H78.3145H78.2544H78.1943H78.1341H78.074H78.0139H77.9537H77.8936H77.8335H77.7733H77.7132H77.6531H77.5929H77.5328H77.4727H77.4125H77.3524H77.2923H77.2321H77.172H77.1119H77.0517H76.9916H76.9315H76.8713H76.8112H76.7511H76.6909H76.6308H76.5707H76.5106H76.4504H76.3903H76.3302H76.27H76.2099H76.1498H76.0896H76.0295H75.9694H75.9092H75.8491H75.789H75.7289H75.6687H75.6086H75.5485H75.4883H75.4282H75.3681H75.3079H75.2478H75.1877H75.1276H75.0674H75.0073H74.9472H74.887H74.8269H74.7668H74.7067H74.6465H74.5864H74.5263H74.4661H74.406H74.3459H74.2858H74.2256H74.1655H74.1054H74.0453H73.9851H73.925H73.8649H73.8048H73.7446H73.6845H73.6244H73.5643H73.5041H73.444H73.3839H73.3238H73.2636H73.2035H73.1434H73.0833H73.0231H72.963H72.9029H72.8428H72.7827H72.7225H72.6624H72.6023H72.5422H72.482H72.4219H72.3618H72.3017H72.2416H72.1814H72.1213H72.0612H72.0011H71.941H71.8808H71.8207H71.7606H71.7005H71.6404H71.5802H71.5201H71.46H71.3999H71.3398H71.2796H71.2195H71.1594H71.0993H71.0392H70.9791H70.919H70.8588H70.7987H70.7386H70.6785H70.6184H70.5583H70.4981H70.438H70.3779H70.3178H70.2577H70.1976H70.1375H70.0773H70.0172H69.9571H69.897H69.8369H69.7768H69.7167H69.6566H69.5965H69.5363H69.4762H69.4161H69.356H69.2959H69.2358H69.1757H69.1156H69.0555H68.9954H68.9352H68.8751H68.815H68.7549H68.6948H68.6347H68.5746H68.5145H68.4544H68.3943H68.3342H68.2741H68.214H68.1539H68.0938H68.0337H67.9735H67.9134H67.8533H67.7932H67.7331H67.673H67.6129H67.5528H67.4927H67.4326H67.3725H67.3124H67.2523H67.1922H67.1321H67.072H67.0119H66.9518H66.8917H66.8316H66.7715H66.7114H66.6513H66.5912H66.5312H66.4711H66.411H66.3509H66.2908C47.2354 288.227 28.1663 288.227 9.11122 288.199H9.11078L189.632 309.348M189.931 309.325L189.632 309.348M189.931 309.325C189.931 309.325 189.931 309.324 189.931 309.324L189.632 309.348M189.931 309.325C190.563 317.233 190.409 325.141 189.467 333.021L189.17 332.985C190.108 325.125 190.262 317.237 189.632 309.348M26.2266 249.248C19.4991 258.588 14.2181 268.672 10.3418 279.501C9.92775 280.649 9.5512 281.815 9.16973 282.997C9.03298 283.42 8.8956 283.845 8.75563 284.273L8.62673 284.666L9.0408 284.666C67.774 284.652 126.381 284.652 185.086 284.652H185.134H185.544L185.42 284.262C185.383 284.142 185.357 284.052 185.335 283.976L185.33 283.959C185.308 283.885 185.288 283.817 185.264 283.751C181.401 271.407 175.671 259.989 168.144 249.472C167.853 249.063 167.554 248.759 167.167 248.614C166.777 248.467 166.353 248.502 165.857 248.643C159.458 250.445 152.946 251.633 146.335 252.304C136.912 253.255 128.386 253.283 118.39 252.15L118.39 252.15C111.571 251.382 104.875 249.998 98.261 248.152L98.2588 248.152C97.5392 247.957 96.6705 247.94 95.9396 248.153C84.6039 251.396 73.0305 252.989 61.2464 253.003C50.0215 253.017 38.9937 251.591 28.1621 248.614C27.7997 248.513 27.4501 248.455 27.1131 248.548C26.766 248.643 26.4869 248.88 26.2266 249.248ZM26.2266 249.248C26.2268 249.247 26.2271 249.247 26.2273 249.247L26.4707 249.422M26.2266 249.248C26.2264 249.248 26.2261 249.248 26.2259 249.249L26.4707 249.422M26.4707 249.422C26.9471 248.749 27.3815 248.707 28.082 248.904L9.13871 284.066C9.2458 283.737 9.35144 283.41 9.45657 283.085C9.83755 281.905 10.2118 280.746 10.624 279.602C14.4911 268.8 19.7593 258.739 26.4707 249.422ZM7.75169 289.55L7.45996 289.48C7.45983 289.481 7.4597 289.481 7.45957 289.482C7.45945 289.482 7.45932 289.483 7.4592 289.484L7.75169 289.55ZM6.37937 343.206C10.6493 363.305 19.5135 381.147 33.0688 396.584L33.0689 396.584C49.685 415.49 70.3074 427.88 94.8023 433.751C95.838 434.007 97.0218 434.187 98.1069 433.994C100.281 433.612 102.438 433.02 104.554 432.417C120.918 427.768 135.598 419.958 148.563 408.945L148.563 408.945C163.663 396.106 174.873 380.443 182.163 362.015L6.37937 343.206Z" fill="white" stroke="black" stroke-width="0.6"/>
<mask id="path-44-inside-1" fill="white">
<path d="M97.0883 438C96.8922 438 96.696 437.986 96.4998 437.944C77.3184 433.909 59.8604 425.558 44.5741 413.116C38.5913 408.24 33.0288 402.72 28.0268 396.695C18.2329 384.897 10.8209 371.474 6.00105 356.833C1.51744 343.242 -0.416115 328.684 0.0742795 312.291C0.102302 312.165 0.130325 312.039 0.158347 311.913C0.228403 311.646 0.284449 311.394 0.29846 311.142C0.760832 304.823 1.57349 299.05 2.77845 293.502C6.21122 277.711 12.6704 262.957 21.9459 249.675C22.8566 248.372 23.8234 247.082 24.7621 245.835C25.1965 245.261 25.6308 244.673 26.0652 244.098L26.1493 244L27.2982 244.336C37.3162 247.279 47.6706 248.918 58.0949 249.212C71.1254 249.576 83.9878 247.909 96.3177 244.238C96.7941 244.098 97.3825 244.098 97.8589 244.238C103.295 245.835 108.788 247.068 114.182 247.867C115.247 248.021 116.34 248.105 117.391 248.189C117.881 248.231 118.385 248.259 118.876 248.315L120.613 248.4C121.09 248.47 121.552 248.554 122 248.638C122.967 248.82 123.976 249.002 124.957 249.016L125.405 249.03C129.65 249.128 134.05 249.226 138.365 249.086C147.697 248.778 157.337 247.167 166.991 244.294C167.733 244.07 168.195 244.21 168.658 244.813C176.168 254.593 182.095 265.129 186.284 276.142C190.473 287.183 193.037 298.994 193.878 311.268C194.733 323.752 193.64 336.222 190.614 348.314C185.233 369.891 174.613 388.806 159.046 404.499C150.541 413.088 141.056 420.248 130.855 425.81C120.683 431.359 109.516 435.436 97.6628 437.958C97.4806 437.986 97.2845 438 97.0883 438ZM0.452584 312.291C-0.0378106 328.642 1.89574 343.172 6.35133 356.693C11.1712 371.306 18.5551 384.673 28.321 396.443C33.295 402.453 38.8435 407.96 44.8123 412.808C60.0425 425.222 77.4585 433.544 96.5839 437.566C96.9062 437.636 97.2845 437.636 97.6067 437.566C121.272 432.536 141.854 421.313 158.794 404.205C174.304 388.554 184.883 369.709 190.263 348.188C193.276 336.124 194.369 323.696 193.514 311.254C191.832 286.818 183.384 264.541 168.378 245.009C167.999 244.518 167.719 244.434 167.117 244.616C157.421 247.503 147.753 249.114 138.394 249.422C134.064 249.562 129.665 249.464 125.405 249.366L124.957 249.352C123.948 249.324 122.925 249.142 121.93 248.974C121.482 248.89 121.02 248.806 120.571 248.736L118.848 248.652C118.357 248.61 117.867 248.568 117.363 248.526C116.298 248.442 115.205 248.358 114.126 248.203C108.718 247.391 103.211 246.172 97.7608 244.56C97.3545 244.434 96.8501 244.434 96.4298 244.56C84.0578 248.231 71.1534 249.913 58.0809 249.548C47.6285 249.254 37.2462 247.601 27.2001 244.659L26.3034 244.392C25.897 244.939 25.4907 245.485 25.0844 246.032C24.1456 247.279 23.1789 248.568 22.2821 249.871C13.0067 263.139 6.57551 277.837 3.14275 293.586C1.93778 299.106 1.12512 304.865 0.662753 311.17C0.63473 311.45 0.578685 311.73 0.508629 311.997C0.494618 312.095 0.466595 312.193 0.452584 312.291ZM97.1584 433.979C96.4858 433.979 95.7292 433.867 94.8325 433.657C82.6427 430.742 71.2795 426.132 61.0373 419.982C50.7951 413.817 41.4075 405.928 33.1549 396.527C19.7321 381.254 10.7649 363.306 6.49144 343.2C4.02546 331.584 3.36693 319.493 4.52986 307.261C5.06229 301.614 6.05709 295.814 7.57031 289.523C7.78048 288.626 8.17279 288.332 9.11155 288.332C9.11155 288.332 9.11155 288.332 9.12556 288.332C25.1264 288.36 41.4075 288.36 57.1422 288.36H176.939C177.597 288.36 178.242 288.36 178.9 288.36C181.002 288.36 183.188 288.374 185.331 288.332C186.144 288.318 186.382 288.668 186.55 289.312C188.218 295.884 189.324 302.637 189.857 309.363C190.487 317.265 190.319 325.237 189.395 333.042C188.19 343.06 185.738 352.797 182.095 362.017C174.823 380.372 163.53 396.148 148.524 408.899C135.661 419.827 120.879 427.716 104.556 432.339C102.511 432.914 100.325 433.516 98.1251 433.909C97.8029 433.951 97.4946 433.979 97.1584 433.979ZM9.11155 288.696C8.35494 288.696 8.10274 288.878 7.9346 289.607C6.42138 295.884 5.4406 301.656 4.89416 307.289C3.73122 319.479 4.38975 331.542 6.85573 343.116C11.1152 363.166 20.0543 381.058 33.4351 396.274C49.8983 415.008 70.579 427.45 94.9166 433.278C96.2056 433.586 97.1864 433.657 98.0271 433.516C100.213 433.124 102.385 432.536 104.43 431.947C120.697 427.337 135.437 419.463 148.257 408.576C163.221 395.868 174.473 380.133 181.716 361.835C185.345 352.657 187.797 342.934 188.988 332.958C189.927 325.181 190.081 317.237 189.451 309.349C188.918 302.637 187.811 295.912 186.158 289.368C186.018 288.822 185.878 288.654 185.317 288.668C183.174 288.71 180.988 288.71 178.886 288.696C178.228 288.696 177.583 288.696 176.924 288.696H57.1282C41.3935 288.724 25.1264 288.724 9.11155 288.696ZM185.387 284.535H8.76127L8.84533 284.282C9.01347 283.764 9.1816 283.26 9.34974 282.741C9.71403 281.634 10.0503 280.569 10.4286 279.505C14.2957 268.702 19.634 258.53 26.3034 249.282C26.8498 248.512 27.3682 248.484 28.1248 248.694C38.7734 251.622 49.9124 253.093 61.2335 253.093C73.031 253.079 84.7164 251.44 95.9674 248.231C96.668 248.035 97.5086 248.035 98.2232 248.231C105.047 250.137 111.828 251.482 118.371 252.239C127.997 253.332 136.628 253.388 146.338 252.393C153.091 251.706 159.677 250.473 165.884 248.736C166.878 248.456 167.425 248.652 168.055 249.52C175.593 260.057 181.352 271.588 185.163 283.778C185.191 283.848 185.205 283.932 185.247 284.044L185.387 284.535ZM9.27968 284.156H184.883C184.855 284.044 184.827 283.96 184.799 283.89C181.002 271.742 175.257 260.253 167.747 249.745C167.215 249.002 166.822 248.862 165.982 249.1C159.747 250.852 153.161 252.084 146.38 252.771C136.628 253.766 127.983 253.71 118.329 252.617C111.758 251.874 104.963 250.515 98.1251 248.61C97.4806 248.428 96.696 248.428 96.0795 248.61C84.8004 251.832 73.073 253.472 61.2475 253.486C49.8984 253.5 38.7174 252.014 28.0408 249.072C27.3963 248.89 27.06 248.918 26.6256 249.52C19.9843 258.74 14.66 268.884 10.8069 279.659C10.4286 280.724 10.0923 281.774 9.72804 282.881C9.55991 283.302 9.4198 283.722 9.27968 284.156Z"/>
</mask>
<path d="M97.0883 438C96.8922 438 96.696 437.986 96.4998 437.944C77.3184 433.909 59.8604 425.558 44.5741 413.116C38.5913 408.24 33.0288 402.72 28.0268 396.695C18.2329 384.897 10.8209 371.474 6.00105 356.833C1.51744 343.242 -0.416115 328.684 0.0742795 312.291C0.102302 312.165 0.130325 312.039 0.158347 311.913C0.228403 311.646 0.284449 311.394 0.29846 311.142C0.760832 304.823 1.57349 299.05 2.77845 293.502C6.21122 277.711 12.6704 262.957 21.9459 249.675C22.8566 248.372 23.8234 247.082 24.7621 245.835C25.1965 245.261 25.6308 244.673 26.0652 244.098L26.1493 244L27.2982 244.336C37.3162 247.279 47.6706 248.918 58.0949 249.212C71.1254 249.576 83.9878 247.909 96.3177 244.238C96.7941 244.098 97.3825 244.098 97.8589 244.238C103.295 245.835 108.788 247.068 114.182 247.867C115.247 248.021 116.34 248.105 117.391 248.189C117.881 248.231 118.385 248.259 118.876 248.315L120.613 248.4C121.09 248.47 121.552 248.554 122 248.638C122.967 248.82 123.976 249.002 124.957 249.016L125.405 249.03C129.65 249.128 134.05 249.226 138.365 249.086C147.697 248.778 157.337 247.167 166.991 244.294C167.733 244.07 168.195 244.21 168.658 244.813C176.168 254.593 182.095 265.129 186.284 276.142C190.473 287.183 193.037 298.994 193.878 311.268C194.733 323.752 193.64 336.222 190.614 348.314C185.233 369.891 174.613 388.806 159.046 404.499C150.541 413.088 141.056 420.248 130.855 425.81C120.683 431.359 109.516 435.436 97.6628 437.958C97.4806 437.986 97.2845 438 97.0883 438ZM0.452584 312.291C-0.0378106 328.642 1.89574 343.172 6.35133 356.693C11.1712 371.306 18.5551 384.673 28.321 396.443C33.295 402.453 38.8435 407.96 44.8123 412.808C60.0425 425.222 77.4585 433.544 96.5839 437.566C96.9062 437.636 97.2845 437.636 97.6067 437.566C121.272 432.536 141.854 421.313 158.794 404.205C174.304 388.554 184.883 369.709 190.263 348.188C193.276 336.124 194.369 323.696 193.514 311.254C191.832 286.818 183.384 264.541 168.378 245.009C167.999 244.518 167.719 244.434 167.117 244.616C157.421 247.503 147.753 249.114 138.394 249.422C134.064 249.562 129.665 249.464 125.405 249.366L124.957 249.352C123.948 249.324 122.925 249.142 121.93 248.974C121.482 248.89 121.02 248.806 120.571 248.736L118.848 248.652C118.357 248.61 117.867 248.568 117.363 248.526C116.298 248.442 115.205 248.358 114.126 248.203C108.718 247.391 103.211 246.172 97.7608 244.56C97.3545 244.434 96.8501 244.434 96.4298 244.56C84.0578 248.231 71.1534 249.913 58.0809 249.548C47.6285 249.254 37.2462 247.601 27.2001 244.659L26.3034 244.392C25.897 244.939 25.4907 245.485 25.0844 246.032C24.1456 247.279 23.1789 248.568 22.2821 249.871C13.0067 263.139 6.57551 277.837 3.14275 293.586C1.93778 299.106 1.12512 304.865 0.662753 311.17C0.63473 311.45 0.578685 311.73 0.508629 311.997C0.494618 312.095 0.466595 312.193 0.452584 312.291ZM97.1584 433.979C96.4858 433.979 95.7292 433.867 94.8325 433.657C82.6427 430.742 71.2795 426.132 61.0373 419.982C50.7951 413.817 41.4075 405.928 33.1549 396.527C19.7321 381.254 10.7649 363.306 6.49144 343.2C4.02546 331.584 3.36693 319.493 4.52986 307.261C5.06229 301.614 6.05709 295.814 7.57031 289.523C7.78048 288.626 8.17279 288.332 9.11155 288.332C9.11155 288.332 9.11155 288.332 9.12556 288.332C25.1264 288.36 41.4075 288.36 57.1422 288.36H176.939C177.597 288.36 178.242 288.36 178.9 288.36C181.002 288.36 183.188 288.374 185.331 288.332C186.144 288.318 186.382 288.668 186.55 289.312C188.218 295.884 189.324 302.637 189.857 309.363C190.487 317.265 190.319 325.237 189.395 333.042C188.19 343.06 185.738 352.797 182.095 362.017C174.823 380.372 163.53 396.148 148.524 408.899C135.661 419.827 120.879 427.716 104.556 432.339C102.511 432.914 100.325 433.516 98.1251 433.909C97.8029 433.951 97.4946 433.979 97.1584 433.979ZM9.11155 288.696C8.35494 288.696 8.10274 288.878 7.9346 289.607C6.42138 295.884 5.4406 301.656 4.89416 307.289C3.73122 319.479 4.38975 331.542 6.85573 343.116C11.1152 363.166 20.0543 381.058 33.4351 396.274C49.8983 415.008 70.579 427.45 94.9166 433.278C96.2056 433.586 97.1864 433.657 98.0271 433.516C100.213 433.124 102.385 432.536 104.43 431.947C120.697 427.337 135.437 419.463 148.257 408.576C163.221 395.868 174.473 380.133 181.716 361.835C185.345 352.657 187.797 342.934 188.988 332.958C189.927 325.181 190.081 317.237 189.451 309.349C188.918 302.637 187.811 295.912 186.158 289.368C186.018 288.822 185.878 288.654 185.317 288.668C183.174 288.71 180.988 288.71 178.886 288.696C178.228 288.696 177.583 288.696 176.924 288.696H57.1282C41.3935 288.724 25.1264 288.724 9.11155 288.696ZM185.387 284.535H8.76127L8.84533 284.282C9.01347 283.764 9.1816 283.26 9.34974 282.741C9.71403 281.634 10.0503 280.569 10.4286 279.505C14.2957 268.702 19.634 258.53 26.3034 249.282C26.8498 248.512 27.3682 248.484 28.1248 248.694C38.7734 251.622 49.9124 253.093 61.2335 253.093C73.031 253.079 84.7164 251.44 95.9674 248.231C96.668 248.035 97.5086 248.035 98.2232 248.231C105.047 250.137 111.828 251.482 118.371 252.239C127.997 253.332 136.628 253.388 146.338 252.393C153.091 251.706 159.677 250.473 165.884 248.736C166.878 248.456 167.425 248.652 168.055 249.52C175.593 260.057 181.352 271.588 185.163 283.778C185.191 283.848 185.205 283.932 185.247 284.044L185.387 284.535ZM9.27968 284.156H184.883C184.855 284.044 184.827 283.96 184.799 283.89C181.002 271.742 175.257 260.253 167.747 249.745C167.215 249.002 166.822 248.862 165.982 249.1C159.747 250.852 153.161 252.084 146.38 252.771C136.628 253.766 127.983 253.71 118.329 252.617C111.758 251.874 104.963 250.515 98.1251 248.61C97.4806 248.428 96.696 248.428 96.0795 248.61C84.8004 251.832 73.073 253.472 61.2475 253.486C49.8984 253.5 38.7174 252.014 28.0408 249.072C27.3963 248.89 27.06 248.918 26.6256 249.52C19.9843 258.74 14.66 268.884 10.8069 279.659C10.4286 280.724 10.0923 281.774 9.72804 282.881C9.55991 283.302 9.4198 283.722 9.27968 284.156Z" fill="black" stroke="black" stroke-width="1.2" mask="url(#path-44-inside-1)"/>
<path d="M87.096 329.672C87.096 334.365 85.112 337.885 81.144 340.232C86.0507 342.749 88.504 346.611 88.504 351.816C88.504 356.253 86.8827 359.709 83.64 362.184C80.44 364.616 76.3013 365.832 71.224 365.832C66.1467 365.832 61.9867 364.616 58.744 362.184C55.544 359.709 53.944 356.253 53.944 351.816C53.944 346.525 56.3973 342.664 61.304 340.232C59.3413 339.123 57.848 337.608 56.824 335.688C55.8427 333.768 55.352 331.763 55.352 329.672C55.352 326.173 56.7813 323.315 59.64 321.096C62.5413 318.877 66.4027 317.768 71.224 317.768C76.0027 317.768 79.8427 318.877 82.744 321.096C85.6453 323.315 87.096 326.173 87.096 329.672ZM71.224 323.592C68.7067 323.592 66.68 324.232 65.144 325.512C63.608 326.749 62.84 328.456 62.84 330.632C62.84 332.851 63.608 334.643 65.144 336.008C66.68 337.331 68.7067 337.992 71.224 337.992C73.7413 337.992 75.7467 337.331 77.24 336.008C78.776 334.643 79.544 332.851 79.544 330.632C79.544 328.456 78.7973 326.749 77.304 325.512C75.8107 324.232 73.784 323.592 71.224 323.592ZM64.376 345.416C62.712 346.909 61.88 348.957 61.88 351.56C61.88 354.163 62.712 356.211 64.376 357.704C66.0827 359.197 68.3653 359.944 71.224 359.944C74.0827 359.944 76.344 359.197 78.008 357.704C79.7147 356.211 80.568 354.163 80.568 351.56C80.568 348.957 79.7147 346.909 78.008 345.416C76.344 343.923 74.0827 343.176 71.224 343.176C68.3653 343.176 66.0827 343.923 64.376 345.416ZM93.6405 365V356.296H102.345V365H93.6405ZM140.534 329.672C140.534 334.365 138.55 337.885 134.582 340.232C139.488 342.749 141.942 346.611 141.942 351.816C141.942 356.253 140.32 359.709 137.078 362.184C133.878 364.616 129.739 365.832 124.662 365.832C119.584 365.832 115.424 364.616 112.182 362.184C108.982 359.709 107.382 356.253 107.382 351.816C107.382 346.525 109.835 342.664 114.742 340.232C112.779 339.123 111.286 337.608 110.262 335.688C109.28 333.768 108.79 331.763 108.79 329.672C108.79 326.173 110.219 323.315 113.078 321.096C115.979 318.877 119.84 317.768 124.662 317.768C129.44 317.768 133.28 318.877 136.182 321.096C139.083 323.315 140.534 326.173 140.534 329.672ZM124.662 323.592C122.144 323.592 120.118 324.232 118.582 325.512C117.046 326.749 116.278 328.456 116.278 330.632C116.278 332.851 117.046 334.643 118.582 336.008C120.118 337.331 122.144 337.992 124.662 337.992C127.179 337.992 129.184 337.331 130.678 336.008C132.214 334.643 132.982 332.851 132.982 330.632C132.982 328.456 132.235 326.749 130.742 325.512C129.248 324.232 127.222 323.592 124.662 323.592ZM117.814 345.416C116.15 346.909 115.318 348.957 115.318 351.56C115.318 354.163 116.15 356.211 117.814 357.704C119.52 359.197 121.803 359.944 124.662 359.944C127.52 359.944 129.782 359.197 131.446 357.704C133.152 356.211 134.006 354.163 134.006 351.56C134.006 348.957 133.152 346.909 131.446 345.416C129.782 343.923 127.52 343.176 124.662 343.176C121.803 343.176 119.52 343.923 117.814 345.416Z" fill="white"/>
<path d="M624 535H7V659H624V535Z" fill="#3356D1"/>
<path d="M624.186 534.814V659.288H6.81481V534.814H624.186ZM630.546 528.454H0.454834V665.648H630.546V528.454Z" fill="white"/>
<path d="M631 666.102H0V528H631V666.102ZM0.908567 665.194H630.091V528.909H0.908567V665.194ZM624.64 659.742H6.35997V534.36H624.64V659.742ZM7.26854 658.834H623.731V535.269H7.26854V658.834Z" fill="black"/>
<path d="M71.8835 572.6V599.992C71.8835 604.515 72.6515 607.843 74.1875 609.976C75.7662 612.109 78.6248 613.176 82.7635 613.176C86.8168 613.176 89.6328 612.067 91.2115 609.848C92.7902 607.629 93.5795 604.259 93.5795 599.736V572.6H101.708V599.416C101.708 606.712 100.236 611.939 97.2915 615.096C94.3902 618.253 89.5475 619.832 82.7635 619.832C75.9795 619.832 71.1155 618.317 68.1715 615.288C65.2275 612.259 63.7555 607.053 63.7555 599.672V572.6H71.8835ZM134.594 593.976C133.826 591.075 131.308 589.624 127.042 589.624C125.292 589.624 123.778 589.987 122.498 590.712C121.26 591.395 120.642 592.291 120.642 593.4C120.642 595.533 122.178 596.899 125.25 597.496L130.114 598.456C132.034 598.84 133.655 599.267 134.978 599.736C136.343 600.163 137.623 600.76 138.818 601.528C140.012 602.296 140.908 603.277 141.506 604.472C142.103 605.667 142.402 607.075 142.402 608.696C142.402 612.152 140.994 614.883 138.178 616.888C135.362 618.851 131.906 619.832 127.81 619.832C123.671 619.832 120.258 618.787 117.57 616.696C114.882 614.563 113.324 611.832 112.898 608.504H120.322C121.047 612.216 123.628 614.072 128.066 614.072C130.114 614.072 131.778 613.667 133.058 612.856C134.338 612.045 134.978 610.957 134.978 609.592C134.978 607.203 132.994 605.624 129.026 604.856L123.842 603.832C116.93 602.467 113.474 599.117 113.474 593.784C113.474 590.84 114.839 588.451 117.57 586.616C120.3 584.739 123.607 583.8 127.49 583.8C131.031 583.8 134.124 584.675 136.77 586.424C139.415 588.173 141.079 590.691 141.762 593.976H134.594ZM159.506 603.96C159.762 606.989 160.786 609.336 162.578 611C164.412 612.664 166.503 613.496 168.85 613.496C173.116 613.496 175.932 611.896 177.298 608.696H184.786C183.89 611.768 182.098 614.392 179.41 616.568C176.722 618.744 173.308 619.832 169.17 619.832C163.836 619.832 159.591 618.083 156.434 614.584C153.319 611.043 151.762 606.691 151.762 601.528C151.762 596.365 153.34 592.12 156.498 588.792C159.698 585.464 163.751 583.8 168.658 583.8C173.906 583.8 178.044 585.699 181.074 589.496C184.146 593.293 185.511 598.115 185.17 603.96H159.506ZM159.506 598.392H177.426C177.34 595.789 176.444 593.699 174.738 592.12C173.031 590.541 171.004 589.752 168.658 589.752C166.524 589.752 164.54 590.456 162.706 591.864C160.871 593.229 159.804 595.405 159.506 598.392ZM215.377 592.312C214.097 592.184 212.881 592.12 211.729 592.12C209.169 592.12 207.27 592.781 206.033 594.104C204.795 595.384 204.177 597.667 204.177 600.952V619H196.561V584.568H204.049V590.712C206.011 586.659 209.126 584.589 213.393 584.504C213.947 584.504 214.609 584.547 215.377 584.632V592.312ZM255.8 579.384H241.208V572.6H278.52V579.384H263.928V619H255.8V579.384ZM308.731 588.472C312.101 591.587 313.787 596.045 313.787 601.848C313.787 607.651 312.101 612.109 308.731 615.224C305.403 618.296 301.435 619.832 296.827 619.832C292.219 619.832 288.229 618.296 284.859 615.224C281.531 612.109 279.867 607.651 279.867 601.848C279.867 596.045 281.531 591.587 284.859 588.472C288.229 585.357 292.219 583.8 296.827 583.8C301.435 583.8 305.403 585.357 308.731 588.472ZM290.363 610.552C292.112 612.6 294.267 613.624 296.827 613.624C299.387 613.624 301.541 612.6 303.291 610.552C305.04 608.504 305.915 605.603 305.915 601.848C305.915 598.051 305.04 595.128 303.291 593.08C301.541 591.032 299.387 590.008 296.827 590.008C294.267 590.008 292.112 591.032 290.363 593.08C288.613 595.128 287.739 598.051 287.739 601.848C287.739 605.603 288.613 608.504 290.363 610.552ZM346.414 614.264C344.366 617.976 340.974 619.832 336.238 619.832C328.558 619.832 324.718 615.309 324.718 606.264V584.568H332.334V604.408C332.334 605.773 332.398 606.925 332.526 607.864C332.654 608.803 332.91 609.763 333.294 610.744C333.72 611.683 334.382 612.408 335.278 612.92C336.174 613.389 337.304 613.624 338.67 613.624C343.832 613.624 346.414 610.061 346.414 602.936V584.568H354.03V619H346.414V614.264ZM386.539 592.312C385.259 592.184 384.043 592.12 382.891 592.12C380.331 592.12 378.432 592.781 377.195 594.104C375.958 595.384 375.339 597.667 375.339 600.952V619H367.723V584.568H375.211V590.712C377.174 586.659 380.288 584.589 384.555 584.504C385.11 584.504 385.771 584.547 386.539 584.632V592.312ZM428.37 609.144L436.242 584.568H444.178L431.762 619H424.594L412.05 584.568H420.434L428.37 609.144ZM446.873 619V610.296H455.577V619H446.873ZM468.658 619V583.672H458.29V578.424C460.807 578.339 462.727 578.189 464.05 577.976C465.373 577.72 466.61 577.187 467.762 576.376C468.914 575.523 469.874 574.264 470.642 572.6H476.274V619H468.658ZM487.926 619V610.296H496.63V619H487.926ZM503.84 595.768C503.84 588.429 505.397 582.605 508.512 578.296C511.669 573.944 516.256 571.768 522.272 571.768C528.288 571.768 532.875 573.944 536.032 578.296C539.189 582.605 540.768 588.429 540.768 595.768C540.768 603.149 539.189 609.016 536.032 613.368C532.875 617.677 528.288 619.832 522.272 619.832C516.256 619.832 511.669 617.677 508.512 613.368C505.397 609.016 503.84 603.149 503.84 595.768ZM530.08 609.272C531.915 606.115 532.832 601.613 532.832 595.768C532.832 589.923 531.915 585.443 530.08 582.328C528.245 579.171 525.643 577.592 522.272 577.592C518.944 577.592 516.363 579.171 514.528 582.328C512.693 585.443 511.776 589.923 511.776 595.768C511.776 601.613 512.693 606.115 514.528 609.272C516.363 612.387 518.944 613.944 522.272 613.944C525.643 613.944 528.245 612.387 530.08 609.272ZM558.768 619V583.672H548.4V578.424C550.917 578.339 552.837 578.189 554.16 577.976C555.483 577.72 556.72 577.187 557.872 576.376C559.024 575.523 559.984 574.264 560.752 572.6H566.384V619H558.768Z" fill="white"/>
</svg>
