<svg width="354" height="354" viewBox="0 0 354 354" fill="none" xmlns="http://www.w3.org/2000/svg">
<path d="M177 345.72C270.181 345.72 345.72 270.182 345.72 177C345.72 83.8187 270.181 8.28027 177 8.28027C83.8185 8.28027 8.28003 83.8187 8.28003 177C8.28003 270.182 83.8185 345.72 177 345.72Z" fill="white"/>
<path d="M177 353.903C79.3919 353.903 0 274.511 0 177C0 79.3919 79.3919 0 177 0C274.608 0 354 79.3919 354 177C353.903 274.511 274.511 353.903 177 353.903ZM177 16.5603C88.5487 16.5603 16.5603 88.5487 16.5603 177C16.5603 265.451 88.5487 337.44 177 337.44C265.451 337.44 337.44 265.451 337.44 177C337.342 88.5487 265.451 16.5603 177 16.5603Z" fill="#3456D1"/>
<path d="M133.438 53L110.267 76.3034V89.5343L128.175 71.5232L128.345 128.885V140.409C128.345 146.128 127.327 150.396 125.375 153.128C123.422 155.945 119.858 157.311 114.765 157.311C109.588 157.311 106.023 155.945 104.071 153.299C102.119 150.652 101.185 146.384 101.185 140.751V106.265H91V140.409C91 149.713 92.8673 156.286 96.5169 160.127C100.167 163.969 106.278 165.847 114.765 165.847C123.253 165.847 129.364 163.883 133.013 159.871C136.663 155.859 138.53 149.287 138.53 140.153V129.056L138.615 71.4379L156.524 89.705V76.3888L133.438 53Z" fill="black"/>
<path d="M173.961 133.283C173.018 129.599 169.758 127.799 164.44 127.799C162.21 127.799 160.323 128.227 158.693 129.17C157.064 130.027 156.292 131.227 156.292 132.598C156.292 135.34 158.264 137.054 162.124 137.739L168.3 138.939C170.702 139.453 172.76 139.967 174.476 140.481C176.191 141.081 177.821 141.853 179.279 142.795C180.823 143.738 181.938 145.023 182.71 146.48C183.482 148.022 183.825 149.736 183.825 151.793C183.825 156.163 182.024 159.591 178.507 162.076C174.905 164.561 170.53 165.846 165.384 165.846C160.151 165.846 155.863 164.475 152.432 161.819C149.001 159.162 147.028 155.735 146.513 151.536H155.948C156.892 156.249 160.151 158.563 165.727 158.563C168.3 158.563 170.444 158.048 172.074 157.02C173.704 155.992 174.476 154.621 174.476 152.907C174.476 149.908 171.988 147.851 166.928 146.908L160.323 145.623C151.574 143.909 147.199 139.625 147.199 132.941C147.199 129.256 148.915 126.171 152.346 123.857C155.777 121.543 159.98 120.344 164.869 120.344C169.329 120.344 173.275 121.458 176.62 123.686C179.965 125.914 182.11 129.084 182.968 133.198H173.961V133.283Z" fill="black"/>
<path d="M198.951 145.832C199.29 149.681 200.562 152.589 202.851 154.727C205.14 156.866 207.684 157.892 210.651 157.892C215.993 157.892 219.554 155.839 221.249 151.819H230.576C229.474 155.668 227.184 159.004 223.878 161.741C220.486 164.478 216.247 165.846 211.075 165.846C204.377 165.846 199.121 163.623 195.136 159.175C191.236 154.727 189.286 149.253 189.286 142.753C189.286 136.253 191.236 130.864 195.221 126.673C199.205 122.482 204.293 120.344 210.397 120.344C216.925 120.344 222.182 122.739 225.997 127.528C229.813 132.318 231.508 138.391 231.084 145.832H198.951ZM198.951 138.733H221.419C221.334 135.483 220.147 132.831 218.028 130.779C215.908 128.811 213.364 127.785 210.397 127.785C207.684 127.785 205.225 128.64 202.936 130.436C200.647 132.233 199.29 134.97 198.951 138.733Z" fill="black"/>
<path d="M262.915 131.123C261.298 130.952 259.766 130.866 258.319 130.866C255.085 130.866 252.701 131.724 251.169 133.355C249.637 134.985 248.871 137.903 248.871 142.108V164.936H239.339V121.34H248.786V129.149C251.254 124 255.17 121.426 260.532 121.254C261.213 121.254 262.064 121.34 263 121.426V131.123H262.915Z" fill="black"/>
<path d="M109.194 211.661H91V203.159H137.413V211.661H119.302V261.402H109.194V211.661Z" fill="black"/>
<path d="M170.08 222.722C174.361 226.664 176.545 232.32 176.545 239.604C176.545 246.973 174.361 252.543 170.08 256.485C165.799 260.427 160.645 262.312 154.704 262.312C148.763 262.312 143.608 260.341 139.328 256.485C135.047 252.543 132.863 246.973 132.863 239.604C132.863 232.234 135.047 226.664 139.328 222.722C143.608 218.78 148.763 216.81 154.704 216.81C160.645 216.81 165.712 218.78 170.08 222.722ZM146.317 250.658C148.588 253.229 151.384 254.514 154.616 254.514C157.936 254.514 160.732 253.229 162.916 250.658C165.188 248.087 166.323 244.403 166.323 239.604C166.323 234.805 165.188 231.12 162.916 228.549C160.645 225.979 157.849 224.693 154.616 224.693C151.297 224.693 148.501 225.979 146.317 228.549C144.045 231.12 142.91 234.805 142.91 239.604C142.997 244.403 144.045 248.087 146.317 250.658Z" fill="black"/>
<path d="M210.816 217.99V241.133C210.816 250.1 207.594 254.626 201.15 254.626C199.454 254.626 198.013 254.285 196.911 253.687C195.809 253.089 194.961 252.15 194.452 250.954C193.943 249.758 193.604 248.563 193.435 247.367C193.265 246.172 193.18 244.72 193.18 243.012V217.99L193.35 190.321L211.918 208.853V195.616L188.771 172.217L165.624 195.531V208.767L183.514 190.748L183.599 217.905V245.232C183.599 256.676 188.432 262.312 198.013 262.312C203.948 262.312 208.188 260.006 210.731 255.309V261.287H220.227V217.905H210.816V217.99Z" fill="black"/>
<path d="M254.724 227.589C253.107 227.417 251.575 227.332 250.128 227.332C246.894 227.332 244.511 228.19 242.979 229.82C241.447 231.451 240.681 234.369 240.681 238.574V261.402H231.148V217.806H240.596V225.615C243.064 220.466 246.979 217.891 252.341 217.72C253.022 217.72 253.873 217.806 254.81 217.891V227.589H254.724Z" fill="black"/>
</svg>
