<svg width="464" height="410" viewBox="0 0 464 410" fill="none" xmlns="http://www.w3.org/2000/svg">
<path d="M406.138 373.305H60.5916C46.4877 373.305 35.041 361.858 35.041 347.754V61.5872C35.041 47.4833 46.4877 36.0366 60.5916 36.0366H406.138C420.242 36.0366 431.689 47.4833 431.689 61.5872V347.754C431.689 361.858 420.242 373.305 406.138 373.305Z" fill="white"/>
<path d="M405.273 381.62H59.7268C41.126 381.62 26 366.494 26 347.894V61.7268C26 43.126 41.126 28 59.7268 28H405.273C423.874 28 439 43.126 439 61.7268V347.894C439 366.494 423.874 381.62 405.273 381.62ZM59.7268 44.3524C50.1198 44.3524 42.3524 52.1198 42.3524 61.7268V347.894C42.3524 357.501 50.1198 365.268 59.7268 365.268H405.273C414.88 365.268 422.648 357.501 422.648 347.894V61.7268C422.648 52.1198 414.88 44.3524 405.273 44.3524H59.7268Z" fill="#3456D1"/>
<path d="M258.747 157.28C257.814 153.891 254.919 152.242 249.878 152.242C247.824 152.242 246.05 152.609 244.556 153.433C243.062 154.258 242.315 155.265 242.315 156.548C242.315 159.021 244.089 160.578 247.73 161.311L253.426 162.41C255.666 162.868 257.627 163.326 259.214 163.876C260.801 164.425 262.295 165.066 263.696 165.982C265.096 166.898 266.123 167.998 266.87 169.372C267.617 170.746 267.897 172.394 267.897 174.226C267.897 178.257 266.217 181.371 262.949 183.661C259.588 185.951 255.573 187.142 250.718 187.142C245.863 187.142 241.848 185.951 238.674 183.478C235.499 181.005 233.632 177.89 233.165 174.043H241.942C242.782 178.348 245.863 180.455 251.091 180.455C253.519 180.455 255.48 179.997 256.973 179.081C258.467 178.165 259.214 176.883 259.214 175.326C259.214 172.578 256.88 170.746 252.212 169.83L246.143 168.639C238.02 167.082 233.912 163.234 233.912 157.006C233.912 153.616 235.499 150.868 238.767 148.67C241.942 146.563 245.863 145.464 250.438 145.464C254.639 145.464 258.28 146.471 261.362 148.487C264.443 150.502 266.403 153.433 267.244 157.189H258.747V157.28Z" fill="black"/>
<path d="M281.758 168.914C282.033 172.394 283.226 175.142 285.336 177.066C287.446 178.99 289.832 179.906 292.584 179.906C297.539 179.906 300.75 178.074 302.401 174.318H311.026C310.016 177.89 307.906 180.913 304.787 183.386C301.667 185.86 297.722 187.142 292.951 187.142C286.804 187.142 281.85 185.127 278.271 181.005C274.601 176.974 272.858 171.936 272.858 165.982C272.858 160.028 274.693 155.082 278.363 151.235C282.033 147.387 286.712 145.464 292.401 145.464C298.456 145.464 303.319 147.662 306.805 152.059C310.292 156.456 311.943 162.044 311.484 168.822H281.758V168.914ZM281.758 162.502H302.493C302.401 159.479 301.392 157.097 299.374 155.265C297.355 153.433 295.061 152.517 292.309 152.517C289.832 152.517 287.538 153.341 285.428 154.899C283.318 156.456 282.033 159.021 281.758 162.502Z" fill="black"/>
<path d="M341.329 155.378C339.855 155.196 338.473 155.196 337.091 155.196C334.144 155.196 331.933 155.924 330.459 157.472C328.985 158.929 328.34 161.569 328.34 165.392V186.15H319.497V146.456H328.156V153.557C330.459 148.914 334.052 146.547 339.026 146.456C339.671 146.456 340.408 146.547 341.329 146.638V155.378V155.378Z" fill="black"/>
<path d="M255.108 240.307C259.003 243.964 260.95 249.31 260.95 256.156C260.95 263.002 259.003 268.254 255.108 271.911C251.212 275.569 246.575 277.444 241.104 277.444C235.725 277.444 231.087 275.569 227.1 271.911C223.204 268.254 221.257 263.002 221.257 256.156C221.257 249.31 223.204 244.058 227.1 240.307C230.995 236.65 235.632 234.774 241.104 234.774C246.483 234.774 251.12 236.556 255.108 240.307ZM233.499 266.378C235.539 268.817 238.043 270.036 241.104 270.036C244.071 270.036 246.575 268.817 248.708 266.378C250.749 263.94 251.769 260.564 251.769 256.062C251.769 251.561 250.749 248.091 248.708 245.653C246.668 243.214 244.164 241.995 241.104 241.995C238.136 241.995 235.539 243.214 233.499 245.653C231.458 248.091 230.438 251.561 230.438 256.062C230.438 260.564 231.458 263.94 233.499 266.378Z" fill="black"/>
<path d="M292.79 270.066C290.419 274.354 286.498 276.452 281.118 276.452C272.273 276.452 267.896 271.252 267.896 260.853V235.857H276.65V258.663C276.65 260.214 276.741 261.582 276.832 262.677C277.015 263.772 277.288 264.867 277.744 265.961C278.2 267.056 278.93 267.877 280.024 268.424C281.027 268.972 282.395 269.245 283.945 269.245C289.872 269.245 292.881 265.14 292.881 256.93V235.766H301.635V275.448H292.881V270.066H292.79Z" fill="black"/>
<path d="M334.384 244.617C332.843 244.435 331.399 244.435 329.954 244.435C326.872 244.435 324.561 245.165 323.02 246.716C321.479 248.176 320.805 250.822 320.805 254.655V275.46H311.56V235.766H320.613V242.884C323.02 238.23 326.776 235.857 331.976 235.766C332.651 235.766 333.421 235.857 334.384 235.949V244.617V244.617Z" fill="black"/>
<path d="M217.6 131.43V163.453C217.6 168.79 216.658 172.816 214.774 175.438C212.889 178.059 209.592 179.37 204.692 179.37C199.793 179.37 196.401 178.153 194.517 175.625C192.632 173.097 191.784 169.164 191.784 163.827V131.43L191.69 92.8539L208.084 109.146V97.161L186.885 76L165.686 97.0673V109.052L182.08 92.7602V144.633V163.359C182.08 172.067 183.87 178.247 187.356 181.805C190.842 185.363 196.684 187.142 204.692 187.142C212.795 187.142 218.543 185.269 222.029 181.524C225.515 177.779 227.211 171.599 227.211 162.985V131.337H217.6V131.43Z" fill="black"/>
<path d="M209.008 275.755V229.398H226.218V221.425H182.416L139.048 221.517L152.63 207.981H142.676L125 225.504L142.583 243.027H152.63L139.048 229.491L182.401 229.398H199.518V275.755V318.312L183.331 302.179V314.047L204.263 335L225.195 314.139V302.272L209.008 318.312V275.755Z" fill="black"/>
<path d="M463.707 236.707C464.098 236.317 464.098 235.683 463.707 235.293L457.343 228.929C456.953 228.538 456.319 228.538 455.929 228.929C455.538 229.319 455.538 229.953 455.929 230.343L461.586 236L455.929 241.657C455.538 242.047 455.538 242.681 455.929 243.071C456.319 243.462 456.953 243.462 457.343 243.071L463.707 236.707ZM451 237H463V235H451V237Z" fill="black"/>
<path d="M25.7071 236.707C26.0976 236.317 26.0976 235.683 25.7071 235.293L19.3431 228.929C18.9526 228.538 18.3195 228.538 17.9289 228.929C17.5384 229.319 17.5384 229.953 17.9289 230.343L23.5858 236L17.9289 241.657C17.5384 242.047 17.5384 242.681 17.9289 243.071C18.3195 243.462 18.9526 243.462 19.3431 243.071L25.7071 236.707ZM13 237H25V235H13V237Z" fill="black"/>
<path d="M263.707 0.292893C263.317 -0.0976311 262.683 -0.0976311 262.293 0.292893L255.929 6.65685C255.538 7.04738 255.538 7.68054 255.929 8.07107C256.319 8.46159 256.953 8.46159 257.343 8.07107L263 2.41421L268.657 8.07107C269.047 8.46159 269.681 8.46159 270.071 8.07107C270.462 7.68054 270.462 7.04738 270.071 6.65685L263.707 0.292893ZM264 13L264 1L262 1L262 13L264 13Z" fill="black"/>
<path d="M263.707 384.293C263.317 383.902 262.683 383.902 262.293 384.293L255.929 390.657C255.538 391.047 255.538 391.681 255.929 392.071C256.319 392.462 256.953 392.462 257.343 392.071L263 386.414L268.657 392.071C269.047 392.462 269.681 392.462 270.071 392.071C270.462 391.681 270.462 391.047 270.071 390.657L263.707 384.293ZM264 397L264 385L262 385L262 397L264 397Z" fill="black"/>
<path d="M439.293 235.293C438.902 235.683 438.902 236.317 439.293 236.707L445.657 243.071C446.047 243.462 446.681 243.462 447.071 243.071C447.462 242.681 447.462 242.047 447.071 241.657L441.414 236L447.071 230.343C447.462 229.953 447.462 229.319 447.071 228.929C446.681 228.538 446.047 228.538 445.657 228.929L439.293 235.293ZM452 235L440 235L440 237L452 237L452 235Z" fill="black"/>
<path d="M0.292893 235.293C-0.0976311 235.683 -0.097631 236.317 0.292893 236.707L6.65685 243.071C7.04738 243.462 7.68054 243.462 8.07107 243.071C8.46159 242.681 8.46159 242.047 8.07107 241.657L2.41421 236L8.07107 230.343C8.46159 229.953 8.46159 229.319 8.07107 228.929C7.68054 228.538 7.04738 228.538 6.65685 228.929L0.292893 235.293ZM13 235L1 235L1 237L13 237L13 235Z" fill="black"/>
<path d="M262.293 24.7071C262.683 25.0976 263.317 25.0976 263.707 24.7071L270.071 18.3431C270.462 17.9526 270.462 17.3195 270.071 16.9289C269.681 16.5384 269.047 16.5384 268.657 16.9289L263 22.5858L257.343 16.9289C256.953 16.5384 256.319 16.5384 255.929 16.9289C255.538 17.3195 255.538 17.9526 255.929 18.3431L262.293 24.7071ZM262 12L262 24L264 24L264 12L262 12Z" fill="black"/>
<path d="M262.293 408.707C262.683 409.098 263.317 409.098 263.707 408.707L270.071 402.343C270.462 401.953 270.462 401.319 270.071 400.929C269.681 400.538 269.047 400.538 268.657 400.929L263 406.586L257.343 400.929C256.953 400.538 256.319 400.538 255.929 400.929C255.538 401.319 255.538 401.953 255.929 402.343L262.293 408.707ZM262 396L262 408L264 408L264 396L262 396Z" fill="black"/>
<path d="M450.594 182.154C450.594 182.85 450.432 183.546 450.108 184.242C449.784 184.938 449.298 185.634 448.65 186.33C448.014 187.014 447.324 187.668 446.58 188.292C445.836 188.904 444.948 189.576 443.916 190.308H450.936V192H441.486V190.38C443.97 188.496 445.782 186.954 446.922 185.754C448.062 184.542 448.632 183.408 448.632 182.352C448.632 181.692 448.422 181.17 448.002 180.786C447.594 180.402 447.042 180.21 446.346 180.21C445.602 180.21 444.978 180.444 444.474 180.912C443.982 181.368 443.73 182.088 443.718 183.072H441.81C441.786 181.764 442.194 180.714 443.034 179.922C443.874 179.118 444.996 178.716 446.4 178.716C447.636 178.716 448.644 179.022 449.424 179.634C450.204 180.234 450.594 181.074 450.594 182.154ZM459.648 187.752C459.648 186.792 459.372 186.06 458.82 185.556C458.268 185.04 457.614 184.782 456.858 184.782C456.258 184.782 455.736 184.92 455.292 185.196C454.86 185.472 454.566 185.802 454.41 186.186L452.592 186.078L453.456 178.95H461.088V180.66H454.986L454.554 184.152C455.226 183.552 456.144 183.252 457.308 183.252C458.508 183.252 459.522 183.654 460.35 184.458C461.19 185.25 461.61 186.342 461.61 187.734C461.61 189.15 461.148 190.254 460.224 191.046C459.312 191.838 458.196 192.234 456.876 192.234C455.448 192.234 454.338 191.844 453.546 191.064C452.754 190.284 452.298 189.3 452.178 188.112H454.05C454.29 189.852 455.238 190.722 456.894 190.722C457.674 190.722 458.328 190.458 458.856 189.93C459.384 189.39 459.648 188.664 459.648 187.752ZM444.132 207.316V208.738C444.768 207.67 445.776 207.136 447.156 207.136C448.32 207.136 449.304 207.598 450.108 208.522C450.924 209.434 451.332 210.652 451.332 212.176C451.332 213.712 450.924 214.942 450.108 215.866C449.304 216.778 448.32 217.234 447.156 217.234C445.776 217.234 444.768 216.7 444.132 215.632V220.15H442.26V207.316H444.132ZM446.724 215.668C447.504 215.668 448.134 215.356 448.614 214.732C449.094 214.108 449.334 213.256 449.334 212.176C449.334 211.096 449.094 210.25 448.614 209.638C448.134 209.014 447.504 208.702 446.724 208.702C445.956 208.702 445.32 208.996 444.816 209.584C444.312 210.172 444.06 211.036 444.06 212.176C444.06 213.316 444.312 214.186 444.816 214.786C445.32 215.374 445.956 215.668 446.724 215.668ZM457.466 211.942L461.048 217H458.816L456.35 213.508L453.884 217H451.778L455.324 212.05L451.994 207.316H454.208L456.44 210.484L458.708 207.316H460.778L457.466 211.942Z" fill="black"/>
<path d="M11.594 182.154C11.594 182.85 11.432 183.546 11.108 184.242C10.784 184.938 10.298 185.634 9.65 186.33C9.014 187.014 8.324 187.668 7.58 188.292C6.836 188.904 5.948 189.576 4.916 190.308H11.936V192H2.486V190.38C4.97 188.496 6.782 186.954 7.922 185.754C9.062 184.542 9.632 183.408 9.632 182.352C9.632 181.692 9.422 181.17 9.002 180.786C8.594 180.402 8.042 180.21 7.346 180.21C6.602 180.21 5.978 180.444 5.474 180.912C4.982 181.368 4.73 182.088 4.718 183.072H2.81C2.786 181.764 3.194 180.714 4.034 179.922C4.874 179.118 5.996 178.716 7.4 178.716C8.636 178.716 9.644 179.022 10.424 179.634C11.204 180.234 11.594 181.074 11.594 182.154ZM20.6481 187.752C20.6481 186.792 20.3721 186.06 19.8201 185.556C19.2681 185.04 18.6141 184.782 17.8581 184.782C17.2581 184.782 16.7361 184.92 16.2921 185.196C15.8601 185.472 15.5661 185.802 15.4101 186.186L13.5921 186.078L14.4561 178.95H22.0881V180.66H15.9861L15.5541 184.152C16.2261 183.552 17.1441 183.252 18.3081 183.252C19.5081 183.252 20.5221 183.654 21.3501 184.458C22.1901 185.25 22.6101 186.342 22.6101 187.734C22.6101 189.15 22.1481 190.254 21.2241 191.046C20.3121 191.838 19.1961 192.234 17.8761 192.234C16.4481 192.234 15.3381 191.844 14.5461 191.064C13.7541 190.284 13.2981 189.3 13.1781 188.112H15.0501C15.2901 189.852 16.2381 190.722 17.8941 190.722C18.6741 190.722 19.3281 190.458 19.8561 189.93C20.3841 189.39 20.6481 188.664 20.6481 187.752ZM5.132 207.316V208.738C5.768 207.67 6.776 207.136 8.156 207.136C9.32 207.136 10.304 207.598 11.108 208.522C11.924 209.434 12.332 210.652 12.332 212.176C12.332 213.712 11.924 214.942 11.108 215.866C10.304 216.778 9.32 217.234 8.156 217.234C6.776 217.234 5.768 216.7 5.132 215.632V220.15H3.26V207.316H5.132ZM7.724 215.668C8.504 215.668 9.134 215.356 9.614 214.732C10.094 214.108 10.334 213.256 10.334 212.176C10.334 211.096 10.094 210.25 9.614 209.638C9.134 209.014 8.504 208.702 7.724 208.702C6.956 208.702 6.32 208.996 5.816 209.584C5.312 210.172 5.06 211.036 5.06 212.176C5.06 213.316 5.312 214.186 5.816 214.786C6.32 215.374 6.956 215.668 7.724 215.668ZM18.4659 211.942L22.0479 217H19.8159L17.3499 213.508L14.8839 217H12.7779L16.3239 212.05L12.9939 207.316H15.2079L17.4399 210.484L19.7079 207.316H21.7779L18.4659 211.942Z" fill="black"/>
<path d="M211.594 10.154C211.594 10.85 211.432 11.546 211.108 12.242C210.784 12.938 210.298 13.634 209.65 14.33C209.014 15.014 208.324 15.668 207.58 16.292C206.836 16.904 205.948 17.576 204.916 18.308H211.936V20H202.486V18.38C204.97 16.496 206.782 14.954 207.922 13.754C209.062 12.542 209.632 11.408 209.632 10.352C209.632 9.692 209.422 9.17 209.002 8.786C208.594 8.402 208.042 8.21 207.346 8.21C206.602 8.21 205.978 8.444 205.474 8.912C204.982 9.368 204.73 10.088 204.718 11.072H202.81C202.786 9.764 203.194 8.714 204.034 7.922C204.874 7.118 205.996 6.716 207.4 6.716C208.636 6.716 209.644 7.022 210.424 7.634C211.204 8.234 211.594 9.074 211.594 10.154ZM220.648 15.752C220.648 14.792 220.372 14.06 219.82 13.556C219.268 13.04 218.614 12.782 217.858 12.782C217.258 12.782 216.736 12.92 216.292 13.196C215.86 13.472 215.566 13.802 215.41 14.186L213.592 14.078L214.456 6.95H222.088V8.66H215.986L215.554 12.152C216.226 11.552 217.144 11.252 218.308 11.252C219.508 11.252 220.522 11.654 221.35 12.458C222.19 13.25 222.61 14.342 222.61 15.734C222.61 17.15 222.148 18.254 221.224 19.046C220.312 19.838 219.196 20.234 217.876 20.234C216.448 20.234 215.338 19.844 214.546 19.064C213.754 18.284 213.298 17.3 213.178 16.112H215.05C215.29 17.852 216.238 18.722 217.894 18.722C218.674 18.722 219.328 18.458 219.856 17.93C220.384 17.39 220.648 16.664 220.648 15.752ZM230.761 10.316V11.738C231.397 10.67 232.405 10.136 233.785 10.136C234.949 10.136 235.933 10.598 236.737 11.522C237.553 12.434 237.961 13.652 237.961 15.176C237.961 16.712 237.553 17.942 236.737 18.866C235.933 19.778 234.949 20.234 233.785 20.234C232.405 20.234 231.397 19.7 230.761 18.632V23.15H228.889V10.316H230.761ZM233.353 18.668C234.133 18.668 234.763 18.356 235.243 17.732C235.723 17.108 235.963 16.256 235.963 15.176C235.963 14.096 235.723 13.25 235.243 12.638C234.763 12.014 234.133 11.702 233.353 11.702C232.585 11.702 231.949 11.996 231.445 12.584C230.941 13.172 230.689 14.036 230.689 15.176C230.689 16.316 230.941 17.186 231.445 17.786C231.949 18.374 232.585 18.668 233.353 18.668ZM244.095 14.942L247.677 20H245.445L242.979 16.508L240.513 20H238.407L241.953 15.05L238.623 10.316H240.837L243.069 13.484L245.337 10.316H247.407L244.095 14.942Z" fill="black"/>
<path d="M211.594 394.154C211.594 394.85 211.432 395.546 211.108 396.242C210.784 396.938 210.298 397.634 209.65 398.33C209.014 399.014 208.324 399.668 207.58 400.292C206.836 400.904 205.948 401.576 204.916 402.308H211.936V404H202.486V402.38C204.97 400.496 206.782 398.954 207.922 397.754C209.062 396.542 209.632 395.408 209.632 394.352C209.632 393.692 209.422 393.17 209.002 392.786C208.594 392.402 208.042 392.21 207.346 392.21C206.602 392.21 205.978 392.444 205.474 392.912C204.982 393.368 204.73 394.088 204.718 395.072H202.81C202.786 393.764 203.194 392.714 204.034 391.922C204.874 391.118 205.996 390.716 207.4 390.716C208.636 390.716 209.644 391.022 210.424 391.634C211.204 392.234 211.594 393.074 211.594 394.154ZM220.648 399.752C220.648 398.792 220.372 398.06 219.82 397.556C219.268 397.04 218.614 396.782 217.858 396.782C217.258 396.782 216.736 396.92 216.292 397.196C215.86 397.472 215.566 397.802 215.41 398.186L213.592 398.078L214.456 390.95H222.088V392.66H215.986L215.554 396.152C216.226 395.552 217.144 395.252 218.308 395.252C219.508 395.252 220.522 395.654 221.35 396.458C222.19 397.25 222.61 398.342 222.61 399.734C222.61 401.15 222.148 402.254 221.224 403.046C220.312 403.838 219.196 404.234 217.876 404.234C216.448 404.234 215.338 403.844 214.546 403.064C213.754 402.284 213.298 401.3 213.178 400.112H215.05C215.29 401.852 216.238 402.722 217.894 402.722C218.674 402.722 219.328 402.458 219.856 401.93C220.384 401.39 220.648 400.664 220.648 399.752ZM230.761 394.316V395.738C231.397 394.67 232.405 394.136 233.785 394.136C234.949 394.136 235.933 394.598 236.737 395.522C237.553 396.434 237.961 397.652 237.961 399.176C237.961 400.712 237.553 401.942 236.737 402.866C235.933 403.778 234.949 404.234 233.785 404.234C232.405 404.234 231.397 403.7 230.761 402.632V407.15H228.889V394.316H230.761ZM233.353 402.668C234.133 402.668 234.763 402.356 235.243 401.732C235.723 401.108 235.963 400.256 235.963 399.176C235.963 398.096 235.723 397.25 235.243 396.638C234.763 396.014 234.133 395.702 233.353 395.702C232.585 395.702 231.949 395.996 231.445 396.584C230.941 397.172 230.689 398.036 230.689 399.176C230.689 400.316 230.941 401.186 231.445 401.786C231.949 402.374 232.585 402.668 233.353 402.668ZM244.095 398.942L247.677 404H245.445L242.979 400.508L240.513 404H238.407L241.953 399.05L238.623 394.316H240.837L243.069 397.484L245.337 394.316H247.407L244.095 398.942Z" fill="black"/>
</svg>
