<svg width="333" height="285" viewBox="0 0 333 285" fill="none" xmlns="http://www.w3.org/2000/svg">
<path d="M306.23 278.169H27.8662C16.5044 278.169 7.2832 268.948 7.2832 257.587V27.0571C7.2832 15.6953 16.5044 6.47412 27.8662 6.47412H306.23C317.592 6.47412 326.813 15.6953 326.813 27.0571V257.587C326.813 268.948 317.592 278.169 306.23 278.169Z" fill="white"/>
<path d="M305.534 284.868H27.1695C12.1851 284.868 0 272.683 0 257.699V27.1695C0 12.1851 12.1851 0 27.1695 0H305.534C320.518 0 332.703 12.1851 332.703 27.1695V257.699C332.703 272.683 320.518 284.868 305.534 284.868ZM27.1695 13.1731C19.4303 13.1731 13.1731 19.4303 13.1731 27.1695V257.699C13.1731 265.438 19.4303 271.695 27.1695 271.695H305.534C313.273 271.695 319.53 265.438 319.53 257.699V27.1695C319.53 19.4303 313.273 13.1731 305.534 13.1731H27.1695Z" fill="#3456D1"/>
<path d="M71.18 142.904C69.092 142.472 67.364 141.668 65.996 140.492C64.628 139.316 63.944 137.708 63.944 135.668C63.944 134.108 64.436 132.764 65.42 131.636C66.428 130.508 67.64 129.692 69.056 129.188C70.472 128.684 71.948 128.432 73.484 128.432C76.028 128.432 78.2 129.056 80 130.304C81.8 131.528 82.94 133.388 83.42 135.884H79.46C79.076 134.468 78.308 133.448 77.156 132.824C76.028 132.176 74.744 131.852 73.304 131.852C72.08 131.852 70.904 132.152 69.776 132.752C68.672 133.352 68.12 134.264 68.12 135.488C68.12 137.432 69.44 138.68 72.08 139.232L75.176 139.88C76.4 140.144 77.456 140.432 78.344 140.744C79.232 141.056 80.132 141.5 81.044 142.076C81.98 142.628 82.688 143.372 83.168 144.308C83.672 145.244 83.924 146.336 83.924 147.584C83.924 150.032 82.928 151.964 80.936 153.38C78.968 154.772 76.616 155.468 73.88 155.468C70.856 155.468 68.384 154.688 66.464 153.128C64.568 151.544 63.464 149.384 63.152 146.648H67.184C67.952 150.248 70.232 152.048 74.024 152.048C75.728 152.048 77.108 151.676 78.164 150.932C79.244 150.164 79.784 149.156 79.784 147.908C79.784 145.748 77.984 144.296 74.384 143.552L71.18 142.904ZM88.7955 130.664H92.5395V135.632H96.3555V138.476H92.5395V149.528C92.5395 150.536 92.6715 151.208 92.9355 151.544C93.2235 151.856 93.8235 152.012 94.7355 152.012H96.3195V155H93.5835C91.6395 155 90.3555 154.676 89.7315 154.028C89.1075 153.38 88.7955 152.048 88.7955 150.032V138.476H85.8435V135.632H88.7955V130.664ZM110.073 139.484C109.401 139.412 108.753 139.376 108.129 139.376C106.641 139.376 105.537 139.796 104.817 140.636C104.097 141.476 103.737 142.88 103.737 144.848V155H99.9927V135.632H103.665V139.052C104.721 136.772 106.509 135.608 109.029 135.56C109.509 135.56 109.857 135.572 110.073 135.596V139.484ZM130.216 145.388C130.216 148.652 129.28 151.148 127.408 152.876C125.536 154.604 123.328 155.468 120.784 155.468C119.176 155.468 117.676 155.132 116.284 154.46C114.916 153.764 113.752 152.636 112.792 151.076C111.856 149.492 111.388 147.596 111.388 145.388C111.388 143.156 111.856 141.26 112.792 139.7C113.752 138.116 114.916 136.988 116.284 136.316C117.676 135.62 119.176 135.272 120.784 135.272C122.392 135.272 123.892 135.62 125.284 136.316C126.676 136.988 127.84 138.116 128.776 139.7C129.736 141.26 130.216 143.156 130.216 145.388ZM116.896 150.536C117.952 151.712 119.248 152.3 120.784 152.3C122.32 152.3 123.616 151.712 124.672 150.536C125.728 149.336 126.256 147.62 126.256 145.388C126.256 143.108 125.728 141.38 124.672 140.204C123.616 139.028 122.32 138.44 120.784 138.44C119.248 138.44 117.952 139.028 116.896 140.204C115.864 141.356 115.348 143.084 115.348 145.388C115.348 147.644 115.864 149.36 116.896 150.536ZM137.698 128.9V143.912L145.402 135.632H149.974L142.45 143.624L150.514 155H146.05L139.894 146.324L137.698 148.664V155H133.954V128.9H137.698ZM165.342 149.312H169.122C168.642 151.064 167.646 152.528 166.134 153.704C164.646 154.88 162.738 155.468 160.41 155.468C157.386 155.468 155.022 154.508 153.318 152.588C151.614 150.644 150.762 148.208 150.762 145.28C150.762 142.304 151.65 139.892 153.426 138.044C155.226 136.196 157.518 135.272 160.302 135.272C163.23 135.272 165.522 136.34 167.178 138.476C168.834 140.588 169.566 143.252 169.374 146.468H154.614C154.782 148.244 155.382 149.66 156.414 150.716C157.47 151.748 158.754 152.264 160.266 152.264C162.81 152.264 164.502 151.28 165.342 149.312ZM154.686 143.516H165.486C165.438 142.028 164.934 140.792 163.974 139.808C163.014 138.824 161.778 138.332 160.266 138.332C157.026 138.332 155.166 140.06 154.686 143.516ZM172.651 140.132V135.632H177.151V140.132H172.651ZM172.651 155V150.5H177.151V155H172.651ZM193.875 155V134.84H187.935V132.284C189.999 132.212 191.523 131.972 192.507 131.564C193.491 131.132 194.307 130.244 194.955 128.9H197.655V155H193.875ZM206.198 140.96C207.614 138.728 209.81 137.612 212.786 137.612C215.234 137.612 217.262 138.44 218.87 140.096C220.502 141.728 221.318 143.864 221.318 146.504C221.318 149.072 220.454 151.208 218.726 152.912C216.998 154.616 214.754 155.468 211.994 155.468C208.754 155.468 206.33 154.364 204.722 152.156C203.138 149.948 202.346 146.828 202.346 142.796C202.346 140.852 202.526 139.052 202.886 137.396C203.27 135.74 203.846 134.228 204.614 132.86C205.406 131.468 206.486 130.388 207.854 129.62C209.222 128.828 210.818 128.432 212.642 128.432C215.09 128.432 217.01 129.092 218.402 130.412C219.794 131.708 220.61 133.304 220.85 135.2H216.926C216.758 134 216.254 133.076 215.414 132.428C214.598 131.756 213.554 131.42 212.282 131.42C210.41 131.42 208.946 132.284 207.89 134.012C206.834 135.716 206.27 138.032 206.198 140.96ZM208.034 150.86C209.042 151.916 210.35 152.444 211.958 152.444C213.566 152.444 214.874 151.916 215.882 150.86C216.89 149.78 217.394 148.376 217.394 146.648C217.394 144.896 216.89 143.48 215.882 142.4C214.874 141.296 213.578 140.744 211.994 140.744C210.386 140.744 209.078 141.296 208.07 142.4C207.062 143.48 206.558 144.896 206.558 146.648C206.558 148.4 207.05 149.804 208.034 150.86ZM229.209 135.632V138.476C230.481 136.34 232.497 135.272 235.257 135.272C237.585 135.272 239.553 136.196 241.161 138.044C242.793 139.868 243.609 142.304 243.609 145.352C243.609 148.424 242.793 150.884 241.161 152.732C239.553 154.556 237.585 155.468 235.257 155.468C232.497 155.468 230.481 154.4 229.209 152.264V161.3H225.465V135.632H229.209ZM234.393 152.336C235.953 152.336 237.213 151.712 238.173 150.464C239.133 149.216 239.613 147.512 239.613 145.352C239.613 143.192 239.133 141.5 238.173 140.276C237.213 139.028 235.953 138.404 234.393 138.404C232.857 138.404 231.585 138.992 230.577 140.168C229.569 141.344 229.065 143.072 229.065 145.352C229.065 147.632 229.569 149.372 230.577 150.572C231.585 151.748 232.857 152.336 234.393 152.336ZM255.877 144.884L263.041 155H258.577L253.645 148.016L248.713 155H244.501L251.593 145.1L244.933 135.632H249.361L253.825 141.968L258.361 135.632H262.501L255.877 144.884Z" fill="black"/>
</svg>
