<svg width="333" height="285" viewBox="0 0 333 285" fill="none" xmlns="http://www.w3.org/2000/svg">
<rect width="333" height="285" rx="25" fill="#C4C4C4"/>
<path d="M62.176 92.984C61.816 93.008 61.252 93.02 60.484 93.02H55.984V104H51.88V77.9H60.16C63.952 77.9 66.772 78.44 68.62 79.52C70.468 80.6 71.392 82.568 71.392 85.424C71.392 88.952 69.712 91.244 66.352 92.3L72.364 104H67.756L62.176 92.984ZM55.984 81.284V89.672H60.7C62.884 89.672 64.504 89.396 65.56 88.844C66.64 88.268 67.18 87.152 67.18 85.496C67.18 83.792 66.628 82.664 65.524 82.112C64.42 81.56 62.788 81.284 60.628 81.284H55.984ZM74.2743 98.78C74.2743 98.012 74.4183 97.328 74.7063 96.728C74.9943 96.104 75.4263 95.564 76.0023 95.108C76.6023 94.652 77.2623 94.256 77.9823 93.92C78.7023 93.584 79.5783 93.296 80.6103 93.056C81.6663 92.816 82.7103 92.624 83.7423 92.48C84.7743 92.312 85.9743 92.156 87.3423 92.012V91.616C87.3423 88.568 85.9503 87.044 83.1663 87.044C81.8703 87.044 80.8623 87.368 80.1423 88.016C79.4223 88.64 79.0263 89.552 78.9543 90.752H75.1743C75.3423 88.736 76.1702 87.14 77.6582 85.964C79.1703 84.764 81.0543 84.164 83.3103 84.164C88.5903 84.164 91.1943 86.9 91.1223 92.372C91.1223 92.492 91.1103 93.224 91.0862 94.568C91.0623 95.888 91.0503 96.704 91.0503 97.016C91.0503 99.944 91.2303 102.272 91.5903 104H87.9903C87.8223 103.112 87.7143 102.26 87.6663 101.444C86.4663 103.46 84.3063 104.468 81.1863 104.468C79.1703 104.468 77.5143 103.952 76.2183 102.92C74.9223 101.888 74.2743 100.508 74.2743 98.78ZM87.5223 94.784C84.2823 95.096 81.9423 95.528 80.5023 96.08C79.0623 96.632 78.3423 97.508 78.3423 98.708C78.3423 99.596 78.6663 100.304 79.3143 100.832C79.9863 101.336 80.8863 101.588 82.0143 101.588C83.6703 101.588 85.0023 101.144 86.0103 100.256C87.0183 99.368 87.5223 98.012 87.5223 96.188V94.784ZM108.815 77.9H112.559V104H108.815V101.264C107.543 103.4 105.527 104.468 102.767 104.468C100.439 104.468 98.4586 103.556 96.8266 101.732C95.2186 99.884 94.4146 97.424 94.4146 94.352C94.4146 91.304 95.2186 88.868 96.8266 87.044C98.4586 85.196 100.439 84.272 102.767 84.272C105.527 84.272 107.543 85.34 108.815 87.476V77.9ZM103.631 87.404C102.071 87.404 100.811 88.028 99.8506 89.276C98.8906 90.5 98.4106 92.192 98.4106 94.352C98.4106 96.512 98.8906 98.216 99.8506 99.464C100.811 100.712 102.071 101.336 103.631 101.336C105.167 101.336 106.439 100.748 107.447 99.572C108.455 98.372 108.959 96.632 108.959 94.352C108.959 92.072 108.455 90.344 107.447 89.168C106.439 87.992 105.167 87.404 103.631 87.404ZM121.358 77.9V82.04H117.614V77.9H121.358ZM121.358 84.632V104H117.614V84.632H121.358ZM138.355 101.264C137.131 103.4 135.163 104.468 132.451 104.468C128.227 104.468 126.115 101.96 126.115 96.944V84.632H129.859V95.936C129.859 97.616 130.111 98.936 130.615 99.896C131.143 100.832 132.175 101.3 133.711 101.3C135.247 101.3 136.411 100.76 137.203 99.68C137.995 98.6 138.391 97.088 138.391 95.144V84.632H142.135V104H138.355V101.264ZM158.161 90.032C157.657 88.184 156.193 87.26 153.769 87.26C152.761 87.26 151.873 87.464 151.105 87.872C150.337 88.28 149.953 88.856 149.953 89.6C149.953 90.296 150.169 90.824 150.601 91.184C151.033 91.544 151.717 91.82 152.653 92.012L155.425 92.552C157.585 92.984 159.265 93.62 160.465 94.46C161.689 95.3 162.301 96.584 162.301 98.312C162.301 100.208 161.521 101.708 159.961 102.812C158.425 103.916 156.493 104.468 154.165 104.468C151.789 104.468 149.857 103.868 148.369 102.668C146.905 101.444 146.053 99.884 145.813 97.988H149.629C150.157 100.316 151.705 101.48 154.273 101.48C155.521 101.48 156.541 101.24 157.333 100.76C158.149 100.256 158.557 99.584 158.557 98.744C158.557 97.28 157.321 96.308 154.849 95.828L151.933 95.252C148.165 94.508 146.281 92.672 146.281 89.744C146.281 88.088 147.037 86.756 148.549 85.748C150.061 84.74 151.921 84.236 154.129 84.236C156.121 84.236 157.813 84.752 159.205 85.784C160.621 86.792 161.509 88.208 161.869 90.032H158.161ZM165.663 89.132V84.632H170.163V89.132H165.663ZM165.663 104V99.5H170.163V104H165.663ZM199.918 84.308C199.918 85.7 199.594 87.092 198.946 88.484C198.298 89.876 197.326 91.268 196.03 92.66C194.758 94.028 193.378 95.336 191.89 96.584C190.402 97.808 188.626 99.152 186.562 100.616H200.602V104H181.702V100.76C186.67 96.992 190.294 93.908 192.574 91.508C194.854 89.084 195.994 86.816 195.994 84.704C195.994 83.384 195.574 82.34 194.734 81.572C193.918 80.804 192.814 80.42 191.422 80.42C189.934 80.42 188.686 80.888 187.678 81.824C186.694 82.736 186.19 84.176 186.166 86.144H182.35C182.302 83.528 183.118 81.428 184.798 79.844C186.478 78.236 188.722 77.432 191.53 77.432C194.002 77.432 196.018 78.044 197.578 79.268C199.138 80.468 199.918 82.148 199.918 84.308ZM218.027 95.504C218.027 93.584 217.475 92.12 216.371 91.112C215.267 90.08 213.959 89.564 212.447 89.564C211.247 89.564 210.203 89.84 209.315 90.392C208.451 90.944 207.863 91.604 207.551 92.372L203.915 92.156L205.643 77.9H220.907V81.32H208.703L207.839 88.304C209.183 87.104 211.019 86.504 213.347 86.504C215.747 86.504 217.775 87.308 219.431 88.916C221.111 90.5 221.951 92.684 221.951 95.468C221.951 98.3 221.027 100.508 219.179 102.092C217.355 103.676 215.123 104.468 212.483 104.468C209.627 104.468 207.407 103.688 205.823 102.128C204.239 100.568 203.327 98.6 203.087 96.224H206.831C207.311 99.704 209.207 101.444 212.519 101.444C214.079 101.444 215.387 100.916 216.443 99.86C217.499 98.78 218.027 97.328 218.027 95.504ZM229.815 84.632V87.476C231.087 85.34 233.103 84.272 235.863 84.272C238.191 84.272 240.159 85.196 241.767 87.044C243.399 88.868 244.215 91.304 244.215 94.352C244.215 97.424 243.399 99.884 241.767 101.732C240.159 103.556 238.191 104.468 235.863 104.468C233.103 104.468 231.087 103.4 229.815 101.264V110.3H226.071V84.632H229.815ZM234.999 101.336C236.559 101.336 237.819 100.712 238.779 99.464C239.739 98.216 240.219 96.512 240.219 94.352C240.219 92.192 239.739 90.5 238.779 89.276C237.819 88.028 236.559 87.404 234.999 87.404C233.463 87.404 232.191 87.992 231.183 89.168C230.175 90.344 229.671 92.072 229.671 94.352C229.671 96.632 230.175 98.372 231.183 99.572C232.191 100.748 233.463 101.336 234.999 101.336ZM256.483 93.884L263.647 104H259.183L254.251 97.016L249.319 104H245.107L252.199 94.1L245.539 84.632H249.967L254.431 90.968L258.967 84.632H263.107L256.483 93.884ZM72.616 148.996L77.008 127.9H81.328L75.028 154H70.096L65.38 133.228L60.736 154H55.804L49.396 127.9H53.896L58.504 148.996L63.004 127.9H67.792L72.616 148.996ZM87.8538 127.9V132.04H84.1098V127.9H87.8538ZM87.8538 134.632V154H84.1098V134.632H87.8538ZM105.967 127.9H109.711V154H105.967V151.264C104.695 153.4 102.679 154.468 99.9189 154.468C97.5909 154.468 95.6109 153.556 93.9789 151.732C92.3709 149.884 91.5669 147.424 91.5669 144.352C91.5669 141.304 92.3709 138.868 93.9789 137.044C95.6109 135.196 97.5909 134.272 99.9189 134.272C102.679 134.272 104.695 135.34 105.967 137.476V127.9ZM100.783 137.404C99.2229 137.404 97.9629 138.028 97.0029 139.276C96.0429 140.5 95.5629 142.192 95.5629 144.352C95.5629 146.512 96.0429 148.216 97.0029 149.464C97.9629 150.712 99.2229 151.336 100.783 151.336C102.319 151.336 103.591 150.748 104.599 149.572C105.607 148.372 106.111 146.632 106.111 144.352C106.111 142.072 105.607 140.344 104.599 139.168C103.591 137.992 102.319 137.404 100.783 137.404ZM115.522 129.664H119.266V134.632H123.082V137.476H119.266V148.528C119.266 149.536 119.398 150.208 119.662 150.544C119.95 150.856 120.55 151.012 121.462 151.012H123.046V154H120.31C118.366 154 117.082 153.676 116.458 153.028C115.834 152.38 115.522 151.048 115.522 149.032V137.476H112.57V134.632H115.522V129.664ZM130.815 137.44C132.039 135.328 134.067 134.272 136.899 134.272C141.219 134.272 143.379 136.78 143.379 141.796V154H139.635V142.804C139.635 142.012 139.587 141.328 139.491 140.752C139.395 140.176 139.215 139.624 138.951 139.096C138.711 138.544 138.303 138.124 137.727 137.836C137.175 137.548 136.479 137.404 135.639 137.404C134.055 137.404 132.855 137.944 132.039 139.024C131.223 140.104 130.815 141.628 130.815 143.596V154H127.071V127.9H130.815V137.44ZM147.663 139.132V134.632H152.163V139.132H147.663ZM147.663 154V149.5H152.163V154H147.663ZM178.678 146.692C178.678 143.524 176.326 141.94 171.622 141.94H170.722V138.664H171.478C175.822 138.664 177.994 137.272 177.994 134.488C177.994 133.168 177.538 132.16 176.626 131.464C175.714 130.768 174.562 130.42 173.17 130.42C171.562 130.42 170.29 130.876 169.354 131.788C168.418 132.676 167.854 133.9 167.662 135.46H163.918C164.11 133.012 165.034 131.068 166.69 129.628C168.346 128.164 170.566 127.432 173.35 127.432C175.798 127.432 177.838 127.984 179.47 129.088C181.102 130.192 181.918 131.884 181.918 134.164C181.918 135.484 181.558 136.672 180.838 137.728C180.118 138.784 179.122 139.588 177.85 140.14C181.018 141.196 182.602 143.356 182.602 146.62C182.602 149.14 181.678 151.084 179.83 152.452C178.006 153.796 175.726 154.468 172.99 154.468C170.11 154.468 167.854 153.676 166.222 152.092C164.614 150.508 163.726 148.516 163.558 146.116H167.302C167.518 147.724 168.106 149.02 169.066 150.004C170.026 150.964 171.358 151.444 173.062 151.444C174.718 151.444 176.062 151.024 177.094 150.184C178.15 149.344 178.678 148.18 178.678 146.692ZM200.413 145.504C200.413 143.584 199.861 142.12 198.757 141.112C197.653 140.08 196.345 139.564 194.833 139.564C193.633 139.564 192.589 139.84 191.701 140.392C190.837 140.944 190.249 141.604 189.937 142.372L186.301 142.156L188.029 127.9H203.293V131.32H191.089L190.225 138.304C191.569 137.104 193.405 136.504 195.733 136.504C198.133 136.504 200.161 137.308 201.817 138.916C203.497 140.5 204.337 142.684 204.337 145.468C204.337 148.3 203.413 150.508 201.565 152.092C199.741 153.676 197.509 154.468 194.869 154.468C192.013 154.468 189.793 153.688 188.209 152.128C186.625 150.568 185.713 148.6 185.473 146.224H189.217C189.697 149.704 191.593 151.444 194.905 151.444C196.465 151.444 197.773 150.916 198.829 149.86C199.885 148.78 200.413 147.328 200.413 145.504ZM210.114 150.868C208.386 148.444 207.522 145.132 207.522 140.932C207.522 136.732 208.386 133.432 210.114 131.032C211.842 128.632 214.398 127.432 217.782 127.432C221.19 127.432 223.746 128.632 225.45 131.032C227.178 133.432 228.042 136.732 228.042 140.932C228.042 145.156 227.178 148.468 225.45 150.868C223.746 153.268 221.19 154.468 217.782 154.468C214.398 154.468 211.842 153.268 210.114 150.868ZM224.082 140.932C224.082 137.524 223.53 134.92 222.426 133.12C221.322 131.32 219.774 130.42 217.782 130.42C215.79 130.42 214.242 131.32 213.138 133.12C212.034 134.92 211.482 137.524 211.482 140.932C211.482 144.364 212.034 146.98 213.138 148.78C214.242 150.556 215.79 151.444 217.782 151.444C219.798 151.444 221.346 150.556 222.426 148.78C223.53 146.98 224.082 144.364 224.082 140.932ZM235.932 134.632V137.476C237.204 135.34 239.22 134.272 241.98 134.272C244.308 134.272 246.276 135.196 247.884 137.044C249.516 138.868 250.332 141.304 250.332 144.352C250.332 147.424 249.516 149.884 247.884 151.732C246.276 153.556 244.308 154.468 241.98 154.468C239.22 154.468 237.204 153.4 235.932 151.264V160.3H232.188V134.632H235.932ZM241.116 151.336C242.676 151.336 243.936 150.712 244.896 149.464C245.856 148.216 246.336 146.512 246.336 144.352C246.336 142.192 245.856 140.5 244.896 139.276C243.936 138.028 242.676 137.404 241.116 137.404C239.58 137.404 238.308 137.992 237.3 139.168C236.292 140.344 235.788 142.072 235.788 144.352C235.788 146.632 236.292 148.372 237.3 149.572C238.308 150.748 239.58 151.336 241.116 151.336ZM262.6 143.884L269.764 154H265.3L260.368 147.016L255.436 154H251.224L258.316 144.1L251.656 134.632H256.084L260.548 140.968L265.084 134.632H269.224L262.6 143.884ZM73.192 177.9V204H69.088V192.3H55.984V204H51.88V177.9H55.984V188.844H69.088V177.9H73.192ZM91.8383 198.312H95.6183C95.1383 200.064 94.1423 201.528 92.6303 202.704C91.1423 203.88 89.2343 204.468 86.9063 204.468C83.8823 204.468 81.5183 203.508 79.8143 201.588C78.1103 199.644 77.2583 197.208 77.2583 194.28C77.2583 191.304 78.1463 188.892 79.9223 187.044C81.7223 185.196 84.0143 184.272 86.7983 184.272C89.7263 184.272 92.0183 185.34 93.6743 187.476C95.3303 189.588 96.0623 192.252 95.8703 195.468H81.1103C81.2783 197.244 81.8783 198.66 82.9103 199.716C83.9663 200.748 85.2503 201.264 86.7623 201.264C89.3063 201.264 90.9983 200.28 91.8383 198.312ZM81.1823 192.516H91.9823C91.9343 191.028 91.4303 189.792 90.4703 188.808C89.5103 187.824 88.2743 187.332 86.7623 187.332C83.5223 187.332 81.6623 189.06 81.1823 192.516ZM103.287 177.9V182.04H99.5434V177.9H103.287ZM103.287 184.632V204H99.5434V184.632H103.287ZM121.221 184.632H124.965V201.732C124.965 204.876 124.269 207.144 122.877 208.536C121.389 210.096 119.133 210.876 116.109 210.876C113.877 210.876 112.041 210.372 110.601 209.364C109.161 208.38 108.297 206.904 108.009 204.936H111.861C112.077 205.872 112.509 206.568 113.157 207.024C113.829 207.504 114.837 207.744 116.181 207.744C117.957 207.744 119.253 207.276 120.069 206.34C120.837 205.5 121.221 204.228 121.221 202.524V200.472C119.949 202.608 117.957 203.676 115.245 203.676C112.917 203.676 110.961 202.8 109.377 201.048C107.793 199.296 107 196.932 107 193.956C107 190.98 107.793 188.628 109.377 186.9C110.961 185.148 112.917 184.272 115.245 184.272C117.957 184.272 119.949 185.34 121.221 187.476V184.632ZM116.109 187.368C114.549 187.368 113.301 187.956 112.365 189.132C111.453 190.284 110.997 191.892 110.997 193.956C110.997 196.044 111.453 197.676 112.365 198.852C113.301 200.028 114.549 200.616 116.109 200.616C117.645 200.616 118.905 200.064 119.889 198.96C120.873 197.832 121.365 196.164 121.365 193.956C121.365 191.772 120.873 190.128 119.889 189.024C118.905 187.92 117.645 187.368 116.109 187.368ZM133.698 187.44C134.922 185.328 136.95 184.272 139.782 184.272C144.102 184.272 146.262 186.78 146.262 191.796V204H142.518V192.804C142.518 192.012 142.47 191.328 142.374 190.752C142.278 190.176 142.098 189.624 141.834 189.096C141.594 188.544 141.186 188.124 140.61 187.836C140.058 187.548 139.362 187.404 138.522 187.404C136.938 187.404 135.738 187.944 134.922 189.024C134.106 190.104 133.698 191.628 133.698 193.596V204H129.954V177.9H133.698V187.44ZM151.698 179.664H155.442V184.632H159.258V187.476H155.442V198.528C155.442 199.536 155.574 200.208 155.838 200.544C156.126 200.856 156.726 201.012 157.638 201.012H159.222V204H156.486C154.542 204 153.258 203.676 152.634 203.028C152.01 202.38 151.698 201.048 151.698 199.032V187.476H148.746V184.632H151.698V179.664ZM162.499 189.132V184.632H166.999V189.132H162.499ZM162.499 204V199.5H166.999V204H162.499ZM193.514 196.692C193.514 193.524 191.162 191.94 186.458 191.94H185.558V188.664H186.314C190.658 188.664 192.83 187.272 192.83 184.488C192.83 183.168 192.374 182.16 191.462 181.464C190.55 180.768 189.398 180.42 188.006 180.42C186.398 180.42 185.126 180.876 184.19 181.788C183.254 182.676 182.69 183.9 182.498 185.46H178.754C178.946 183.012 179.87 181.068 181.526 179.628C183.182 178.164 185.402 177.432 188.186 177.432C190.634 177.432 192.674 177.984 194.306 179.088C195.938 180.192 196.754 181.884 196.754 184.164C196.754 185.484 196.394 186.672 195.674 187.728C194.954 188.784 193.958 189.588 192.686 190.14C195.854 191.196 197.438 193.356 197.438 196.62C197.438 199.14 196.514 201.084 194.666 202.452C192.842 203.796 190.562 204.468 187.826 204.468C184.946 204.468 182.69 203.676 181.058 202.092C179.45 200.508 178.562 198.516 178.394 196.116H182.138C182.354 197.724 182.942 199.02 183.902 200.004C184.862 200.964 186.194 201.444 187.898 201.444C189.554 201.444 190.898 201.024 191.93 200.184C192.986 199.344 193.514 198.18 193.514 196.692ZM214.889 196.692C214.889 193.524 212.537 191.94 207.833 191.94H206.933V188.664H207.689C212.033 188.664 214.205 187.272 214.205 184.488C214.205 183.168 213.749 182.16 212.837 181.464C211.925 180.768 210.773 180.42 209.381 180.42C207.773 180.42 206.501 180.876 205.565 181.788C204.629 182.676 204.065 183.9 203.873 185.46H200.129C200.321 183.012 201.245 181.068 202.901 179.628C204.557 178.164 206.777 177.432 209.561 177.432C212.009 177.432 214.049 177.984 215.681 179.088C217.313 180.192 218.129 181.884 218.129 184.164C218.129 185.484 217.769 186.672 217.049 187.728C216.329 188.784 215.333 189.588 214.061 190.14C217.229 191.196 218.813 193.356 218.813 196.62C218.813 199.14 217.889 201.084 216.041 202.452C214.217 203.796 211.937 204.468 209.201 204.468C206.321 204.468 204.065 203.676 202.433 202.092C200.825 200.508 199.937 198.516 199.769 196.116H203.513C203.729 197.724 204.317 199.02 205.277 200.004C206.237 200.964 207.569 201.444 209.273 201.444C210.929 201.444 212.273 201.024 213.305 200.184C214.361 199.344 214.889 198.18 214.889 196.692ZM224.492 200.868C222.764 198.444 221.9 195.132 221.9 190.932C221.9 186.732 222.764 183.432 224.492 181.032C226.22 178.632 228.776 177.432 232.16 177.432C235.568 177.432 238.124 178.632 239.828 181.032C241.556 183.432 242.42 186.732 242.42 190.932C242.42 195.156 241.556 198.468 239.828 200.868C238.124 203.268 235.568 204.468 232.16 204.468C228.776 204.468 226.22 203.268 224.492 200.868ZM238.46 190.932C238.46 187.524 237.908 184.92 236.804 183.12C235.7 181.32 234.152 180.42 232.16 180.42C230.168 180.42 228.62 181.32 227.516 183.12C226.412 184.92 225.86 187.524 225.86 190.932C225.86 194.364 226.412 196.98 227.516 198.78C228.62 200.556 230.168 201.444 232.16 201.444C234.176 201.444 235.724 200.556 236.804 198.78C237.908 196.98 238.46 194.364 238.46 190.932ZM250.311 184.632V187.476C251.583 185.34 253.599 184.272 256.359 184.272C258.687 184.272 260.655 185.196 262.263 187.044C263.895 188.868 264.711 191.304 264.711 194.352C264.711 197.424 263.895 199.884 262.263 201.732C260.655 203.556 258.687 204.468 256.359 204.468C253.599 204.468 251.583 203.4 250.311 201.264V210.3H246.567V184.632H250.311ZM255.495 201.336C257.055 201.336 258.315 200.712 259.275 199.464C260.235 198.216 260.715 196.512 260.715 194.352C260.715 192.192 260.235 190.5 259.275 189.276C258.315 188.028 257.055 187.404 255.495 187.404C253.959 187.404 252.687 187.992 251.679 189.168C250.671 190.344 250.167 192.072 250.167 194.352C250.167 196.632 250.671 198.372 251.679 199.572C252.687 200.748 253.959 201.336 255.495 201.336ZM276.979 193.884L284.143 204H279.679L274.747 197.016L269.815 204H265.603L272.695 194.1L266.035 184.632H270.463L274.927 190.968L279.463 184.632H283.603L276.979 193.884Z" fill="black"/>
</svg>
