<svg width="413" height="354" viewBox="0 0 413 354" fill="none" xmlns="http://www.w3.org/2000/svg">
<path d="M380.138 345.305H34.5916C20.4877 345.305 9.04102 333.858 9.04102 319.754V33.5872C9.04102 19.4833 20.4877 8.03662 34.5916 8.03662H380.138C394.242 8.03662 405.689 19.4833 405.689 33.5872V319.754C405.689 333.858 394.242 345.305 380.138 345.305Z" fill="white"/>
<path d="M379.273 353.62H33.7268C15.126 353.62 0 338.494 0 319.894V33.7268C0 15.126 15.126 0 33.7268 0H379.273C397.874 0 413 15.126 413 33.7268V319.894C413 338.494 397.874 353.62 379.273 353.62ZM33.7268 16.3524C24.1198 16.3524 16.3524 24.1198 16.3524 33.7268V319.894C16.3524 329.501 24.1198 337.268 33.7268 337.268H379.273C388.88 337.268 396.648 329.501 396.648 319.894V33.7268C396.648 24.1198 388.88 16.3524 379.273 16.3524H33.7268Z" fill="#3456D1"/>
<path d="M232.747 129.28C231.814 125.891 228.919 124.242 223.878 124.242C221.824 124.242 220.05 124.609 218.556 125.433C217.062 126.258 216.315 127.265 216.315 128.548C216.315 131.021 218.089 132.578 221.73 133.311L227.426 134.41C229.666 134.868 231.627 135.326 233.214 135.876C234.801 136.425 236.295 137.066 237.696 137.982C239.096 138.898 240.123 139.998 240.87 141.372C241.617 142.746 241.897 144.394 241.897 146.226C241.897 150.257 240.217 153.371 236.949 155.661C233.588 157.951 229.573 159.142 224.718 159.142C219.863 159.142 215.848 157.951 212.674 155.478C209.499 153.005 207.632 149.89 207.165 146.043H215.942C216.782 150.348 219.863 152.455 225.091 152.455C227.519 152.455 229.48 151.997 230.973 151.081C232.467 150.165 233.214 148.883 233.214 147.326C233.214 144.578 230.88 142.746 226.212 141.83L220.143 140.639C212.02 139.082 207.912 135.234 207.912 129.006C207.912 125.616 209.499 122.868 212.767 120.67C215.942 118.563 219.863 117.464 224.438 117.464C228.639 117.464 232.28 118.471 235.362 120.487C238.443 122.502 240.403 125.433 241.244 129.189H232.747V129.28Z" fill="black"/>
<path d="M255.758 140.914C256.033 144.394 257.226 147.142 259.336 149.066C261.446 150.99 263.832 151.906 266.584 151.906C271.538 151.906 274.75 150.074 276.401 146.318H285.025C284.016 149.89 281.906 152.913 278.787 155.386C275.667 157.86 271.722 159.142 266.951 159.142C260.804 159.142 255.849 157.127 252.271 153.005C248.601 148.974 246.858 143.936 246.858 137.982C246.858 132.028 248.693 127.082 252.363 123.235C256.033 119.387 260.712 117.464 266.401 117.464C272.456 117.464 277.319 119.662 280.805 124.059C284.291 128.456 285.943 134.044 285.484 140.822H255.758V140.914ZM255.758 134.502H276.493C276.401 131.479 275.392 129.097 273.373 127.265C271.355 125.433 269.061 124.517 266.309 124.517C263.832 124.517 261.538 125.341 259.428 126.899C257.317 128.456 256.033 131.021 255.758 134.502Z" fill="black"/>
<path d="M315.329 127.378C313.855 127.196 312.473 127.196 311.091 127.196C308.144 127.196 305.933 127.924 304.459 129.472C302.985 130.929 302.34 133.569 302.34 137.392V158.15H293.497V118.456H302.156V125.557C304.459 120.914 308.052 118.547 313.026 118.456C313.671 118.456 314.408 118.547 315.329 118.638V127.378Z" fill="black"/>
<path d="M229.108 212.307C233.003 215.964 234.95 221.31 234.95 228.156C234.95 235.002 233.003 240.254 229.108 243.911C225.212 247.569 220.575 249.444 215.104 249.444C209.725 249.444 205.087 247.569 201.1 243.911C197.204 240.254 195.257 235.002 195.257 228.156C195.257 221.31 197.204 216.058 201.1 212.307C204.995 208.65 209.632 206.774 215.104 206.774C220.483 206.774 225.12 208.556 229.108 212.307ZM207.499 238.378C209.539 240.817 212.043 242.036 215.104 242.036C218.071 242.036 220.575 240.817 222.708 238.378C224.749 235.94 225.769 232.564 225.769 228.062C225.769 223.561 224.749 220.091 222.708 217.653C220.668 215.214 218.164 213.995 215.104 213.995C212.136 213.995 209.539 215.214 207.499 217.653C205.458 220.091 204.438 223.561 204.438 228.062C204.438 232.564 205.458 235.94 207.499 238.378Z" fill="black"/>
<path d="M266.79 242.066C264.419 246.354 260.498 248.452 255.118 248.452C246.273 248.452 241.896 243.252 241.896 232.853V207.857H250.65V230.663C250.65 232.214 250.741 233.582 250.832 234.677C251.015 235.772 251.288 236.867 251.744 237.961C252.2 239.056 252.93 239.877 254.024 240.424C255.027 240.972 256.395 241.245 257.945 241.245C263.872 241.245 266.881 237.14 266.881 228.93V207.766H275.635V247.448H266.881V242.066H266.79Z" fill="black"/>
<path d="M308.384 216.617C306.843 216.435 305.399 216.435 303.954 216.435C300.872 216.435 298.561 217.165 297.02 218.716C295.479 220.176 294.805 222.822 294.805 226.655V247.46H285.56V207.766H294.613V214.884C297.02 210.23 300.776 207.857 305.976 207.766C306.651 207.766 307.421 207.857 308.384 207.949V216.617Z" fill="black"/>
<path d="M191.6 103.43V135.453C191.6 140.79 190.658 144.816 188.774 147.438C186.889 150.059 183.592 151.37 178.692 151.37C173.793 151.37 170.401 150.153 168.517 147.625C166.632 145.097 165.784 141.164 165.784 135.827V103.43L165.69 64.8539L182.084 81.1459V69.161L160.885 48L139.686 69.0673V81.0523L156.08 64.7602V116.633V135.359C156.08 144.067 157.87 150.247 161.356 153.805C164.842 157.363 170.684 159.142 178.692 159.142C186.795 159.142 192.543 157.269 196.029 153.524C199.515 149.779 201.211 143.599 201.211 134.985V103.337H191.6V103.43Z" fill="black"/>
<path d="M183.008 247.755V201.398H200.218V193.425H156.416L113.048 193.517L126.63 179.981H116.676L99 197.504L116.583 215.027H126.63L113.048 201.491L156.401 201.398H173.518V247.755V290.312L157.331 274.179V286.047L178.263 307L199.195 286.139V274.272L183.008 290.312V247.755Z" fill="black"/>
</svg>
