<svg width="400" height="354" viewBox="0 0 400 354" fill="none" xmlns="http://www.w3.org/2000/svg">
<path d="M178.906 19.5603L10.8777 310.581C1.7177 326.42 13.1677 346.267 31.4877 346.267H367.545C385.865 346.267 397.315 326.42 388.155 310.581L220.126 19.5603C210.966 3.62573 188.066 3.62573 178.906 19.5603Z" fill="white"/>
<path d="M367.545 353.9H31.4875C20.1329 353.9 9.92332 347.984 4.29375 338.156C-1.43125 328.328 -1.43125 316.592 4.29375 306.764L172.322 15.7437L178.906 19.5604L172.322 15.7437C177.952 5.91583 188.161 0 199.516 0C210.871 0 221.08 5.91583 226.71 15.7437L394.738 306.764C400.463 316.592 400.463 328.328 394.738 338.156C389.013 347.984 378.899 353.9 367.545 353.9ZM199.516 15.2666C193.696 15.2666 188.448 18.32 185.49 23.3771L17.4612 314.398C14.5033 319.455 14.5033 325.466 17.4612 330.523C20.4191 335.58 25.5716 338.633 31.4875 338.633H367.545C373.365 338.633 378.613 335.58 381.571 330.523C384.529 325.466 384.529 319.455 381.571 314.398L213.542 23.3771C210.584 18.32 205.336 15.2666 199.516 15.2666Z" fill="#3456D1"/>
<path d="M138.17 222.453C146.712 222.453 152.859 220.474 156.505 216.515C160.152 212.556 162.027 205.889 162.027 196.721V169.426V135.151C162.027 129.421 163.069 125.15 165.048 122.337C167.027 119.524 170.57 118.17 175.674 118.17L210.991 118.274L194.843 134.526H206.407L226.722 114.211L206.407 94H194.843L210.47 109.731H175.466C166.923 109.731 160.777 111.711 157.13 115.669C153.484 119.628 151.609 126.296 151.609 135.463V162.759V197.034C151.609 202.764 150.567 207.035 148.588 209.848C146.608 212.661 143.066 214.015 137.961 214.015C132.752 214.015 129.106 212.661 127.127 209.952C125.147 207.243 124.21 203.076 124.21 197.346V162.759H114V196.929C114 206.201 115.875 212.765 119.522 216.619C123.48 220.578 129.627 222.453 138.17 222.453Z" fill="black"/>
<path d="M195.156 213.702C193.49 214.744 191.406 215.265 188.906 215.265C183.28 215.265 180.05 212.973 179.113 208.285H169.737C170.257 212.452 172.237 215.89 175.675 218.599C179.113 221.308 183.384 222.558 188.593 222.558C193.802 222.558 198.073 221.308 201.72 218.807C205.262 216.307 207.033 212.869 207.033 208.493C207.033 206.41 206.616 204.639 205.887 203.18C205.158 201.722 204.012 200.472 202.449 199.43C200.99 198.492 199.324 197.659 197.657 197.138C195.99 196.617 193.906 196.096 191.51 195.575L185.364 194.325C181.509 193.596 179.529 191.825 179.529 189.116C179.529 187.762 180.363 186.616 181.926 185.678C183.488 184.741 185.364 184.324 187.655 184.324C193.073 184.324 196.198 186.199 197.136 189.845H206.199C205.366 185.678 203.282 182.553 199.949 180.365C196.615 178.177 192.656 177.031 188.281 177.031C183.384 177.031 179.217 178.177 175.779 180.573C172.341 182.865 170.57 185.991 170.57 189.637C170.57 196.409 174.946 200.576 183.697 202.347L190.26 203.597C195.261 204.535 197.761 206.514 197.761 209.535C197.657 211.306 196.823 212.661 195.156 213.702Z" fill="black"/>
<path d="M233.599 177.031C227.452 177.031 222.348 179.115 218.285 183.282C214.222 187.449 212.242 192.867 212.242 199.326C212.242 205.889 214.222 211.306 218.18 215.786C222.139 220.266 227.452 222.454 234.224 222.454C239.433 222.454 243.704 221.099 247.142 218.286C250.58 215.578 252.768 212.244 253.914 208.389H244.434C242.663 212.452 239.121 214.432 233.807 214.432C230.89 214.432 228.182 213.39 225.89 211.306C223.598 209.223 222.243 206.202 221.931 202.451H254.331C254.747 195.054 253.081 189.012 249.226 184.22C245.475 179.427 240.267 177.031 233.599 177.031ZM222.035 195.367C222.452 191.616 223.806 188.804 226.098 187.137C228.39 185.366 230.89 184.532 233.599 184.532C236.516 184.532 239.121 185.574 241.308 187.553C243.496 189.533 244.642 192.137 244.746 195.471H222.035V195.367Z" fill="black"/>
<path d="M283.604 177.865C278.187 177.969 274.332 180.573 271.832 185.678V177.969H262.352V221.412H271.936V198.596C271.936 194.429 272.665 191.512 274.228 189.95C275.791 188.283 278.187 187.449 281.417 187.449C282.875 187.449 284.438 187.553 286 187.658V177.969C285.167 177.969 284.334 177.865 283.604 177.865Z" fill="black"/>
<path d="M162.964 259.75H115.771V268.397H134.211V318.299H144.525V268.397H162.964V259.75Z" fill="black"/>
<path d="M179.53 273.918C173.696 273.918 168.695 275.898 164.424 279.857C160.153 283.816 158.069 289.441 158.069 296.734C158.069 304.026 160.153 309.652 164.424 313.611C168.695 317.466 173.696 319.445 179.53 319.445C185.364 319.445 190.365 317.466 194.636 313.611C198.908 309.756 200.991 304.131 200.991 296.734C200.991 289.441 198.908 283.816 194.636 279.857C190.365 275.898 185.364 273.918 179.53 273.918ZM187.76 307.673C185.573 310.277 182.864 311.527 179.634 311.527C176.405 311.527 173.696 310.277 171.508 307.673C169.321 305.068 168.175 301.422 168.175 296.734C168.175 291.942 169.321 288.295 171.508 285.691C173.696 283.086 176.405 281.836 179.634 281.836C182.864 281.836 185.573 283.086 187.76 285.691C189.948 288.295 191.094 291.942 191.094 296.734C190.99 301.422 189.948 305.068 187.76 307.673Z" fill="black"/>
<path d="M235.682 298.088C235.682 307.047 232.452 311.527 225.889 311.527C224.118 311.527 222.764 311.214 221.618 310.589C220.472 309.964 219.638 309.027 219.117 307.881C218.597 306.735 218.284 305.484 218.076 304.234C217.867 303.088 217.867 301.63 217.867 299.859V274.856L218.076 247.352L236.724 265.792V252.561L213.492 229.329L190.364 252.561V265.792L208.283 247.873V274.96V302.359C208.283 313.819 213.179 319.444 222.868 319.444C228.806 319.444 233.078 317.153 235.682 312.464V318.403H245.267V274.96H235.682V298.088Z" fill="black"/>
<path d="M265.582 282.67V274.96H256.102V318.403H265.686V295.588C265.686 291.421 266.416 288.504 267.978 286.941C269.541 285.274 271.937 284.441 275.167 284.441C276.625 284.441 278.188 284.545 279.751 284.649V274.96C278.813 274.856 277.98 274.752 277.25 274.752C271.937 274.96 268.082 277.565 265.582 282.67Z" fill="black"/>
</svg>
